<svg width="91" height="60" viewBox="0 0 91 60" fill="none" xmlns="http://www.w3.org/2000/svg">
<path d="M32.953 29.809C34.275 30.849 36.808 32.071 39.802 32.071C41.863 32.071 44.142 31.491 46.394 29.876C47.509 29.077 47.765 27.527 46.965 26.415C46.168 25.302 44.618 25.046 43.504 25.846C39.735 28.549 36.388 26.189 36.003 25.898C34.925 25.066 33.379 25.256 32.535 26.328C31.689 27.404 31.876 28.963 32.953 29.809Z" fill="white"/>
<path d="M34.1283 21.893C35.6951 21.893 36.9653 20.6228 36.9653 19.056C36.9653 17.4892 35.6951 16.219 34.1283 16.219C32.5614 16.219 31.2913 17.4892 31.2913 19.056C31.2913 20.6228 32.5614 21.893 34.1283 21.893Z" fill="white"/>
<path d="M48.1452 19.056C48.1452 17.493 46.8712 16.221 45.3092 16.221C43.7452 16.221 42.4712 17.493 42.4712 19.056C42.4712 20.621 43.7452 21.894 45.3092 21.894C46.8712 21.894 48.1452 20.622 48.1452 19.056Z" fill="white"/>
<path d="M65.0412 26.323C66.3652 27.363 68.8982 28.584 71.8932 28.584C73.9542 28.584 76.2352 28.004 78.4882 26.388C79.6022 25.591 79.8562 24.04 79.0572 22.928C78.2572 21.814 76.7092 21.559 75.5972 22.358C71.8302 25.058 68.4772 22.702 68.0912 22.412C67.0162 21.58 65.4672 21.77 64.6232 22.842C63.7772 23.919 63.9642 25.477 65.0412 26.323Z" fill="white"/>
<path d="M69.0532 15.57C69.0532 14.005 67.7802 12.732 66.2152 12.732C64.6502 12.732 63.3792 14.005 63.3792 15.57C63.3792 17.134 64.6502 18.407 66.2152 18.407C67.7802 18.407 69.0532 17.135 69.0532 15.57Z" fill="white"/>
<path d="M80.2351 15.57C80.2351 14.005 78.9621 12.732 77.3971 12.732C75.8341 12.732 74.5601 14.005 74.5601 15.57C74.5601 17.134 75.8341 18.407 77.3971 18.407C78.9611 18.408 80.2351 17.135 80.2351 15.57Z" fill="white"/>
<path d="M10.1241 48.296C10.2881 49.826 11.2381 51.035 12.6661 51.53C13.1611 51.703 13.7061 51.778 14.2811 51.778C14.5131 51.778 14.7511 51.765 14.9911 51.741C14.4101 52.822 13.8631 53.908 13.3381 54.963L13.2521 55.133C12.6421 56.36 13.1391 57.848 14.3661 58.46C14.7211 58.637 15.0981 58.721 15.4701 58.721C16.3831 58.721 17.2591 58.217 17.6931 57.348L17.7771 57.178C19.6851 53.349 21.6611 49.422 24.7571 47.271C26.3201 48.107 27.9911 48.778 29.7631 49.239C29.9711 49.294 30.1811 49.32 30.3881 49.32C31.4911 49.32 32.4981 48.579 32.7881 47.463C33.1311 46.137 32.3361 44.782 31.0101 44.439C23.1561 42.397 17.6691 35.294 17.6691 27.166C17.6691 17.328 25.6751 9.32399 35.5121 9.32399C45.3531 9.32399 53.3571 17.328 53.3571 27.166C53.3571 33.313 50.1901 38.969 45.1031 42.214C45.0871 42.223 45.0711 42.236 45.0551 42.247C44.3281 42.707 43.5611 43.121 42.7581 43.477C41.5071 44.034 40.9441 45.499 41.5011 46.752C42.0541 48.002 43.5221 48.566 44.7731 48.009C45.2961 47.778 45.8051 47.527 46.3011 47.259C49.6381 49.395 52.8121 53.345 54.9591 58.123C55.3731 59.043 56.2771 59.588 57.2241 59.588C57.5641 59.588 57.9091 59.518 58.2401 59.37C59.4871 58.808 60.0471 57.34 59.4851 56.09C57.2971 51.219 54.1081 47.025 50.6031 44.252C51.5821 43.387 52.4791 42.438 53.2921 41.425C55.8031 43.455 58.7181 44.935 61.8561 45.752C62.0641 45.807 62.2741 45.833 62.4801 45.833C63.5841 45.833 64.5891 45.092 64.8801 43.976C65.2251 42.65 64.4301 41.295 63.1021 40.951C60.4631 40.264 58.0471 38.954 55.9881 37.178C57.4861 34.116 58.3201 30.708 58.3201 27.166C58.3201 21.809 56.4481 16.887 53.3451 12.991C56.7061 8.49299 61.9051 5.83699 67.6011 5.83699C77.4421 5.83699 85.4461 13.841 85.4461 23.68C85.4461 29.826 82.2791 35.483 77.1921 38.727C77.1751 38.737 77.1621 38.75 77.1451 38.759C76.4161 39.221 75.6491 39.633 74.8461 39.99C73.5941 40.547 73.0311 42.012 73.5881 43.266C73.9981 44.188 74.9061 44.738 75.8551 44.738C76.1901 44.738 76.5341 44.669 76.8611 44.523C77.3631 44.299 77.8541 44.059 78.3351 43.803C81.4151 46.09 83.5411 50.837 85.2781 54.748L85.7911 55.894C86.2031 56.814 87.1071 57.359 88.0551 57.359C88.3941 57.359 88.7391 57.289 89.0701 57.141C90.3201 56.579 90.8791 55.111 90.3161 53.861L89.8131 52.733C88.0441 48.755 85.9191 44.037 82.5581 40.888C87.4591 36.623 90.4091 30.38 90.4091 23.678C90.4091 11.103 80.1791 0.873993 67.6021 0.873993C60.5671 0.873993 54.1011 4.01999 49.8021 9.41599C45.8881 6.25999 40.9221 4.35999 35.5141 4.35999C22.9401 4.35999 12.7091 14.59 12.7091 27.164C12.7091 30.749 13.5611 34.168 15.0691 37.23C12.9161 39.645 9.80107 45.309 10.1241 48.296ZM17.8991 41.63C18.6521 42.548 19.4741 43.406 20.3641 44.198C19.4861 44.953 16.9231 46.249 15.2931 46.686C15.7841 45.241 16.9391 43.058 17.8991 41.63Z" fill="white"/>
<path d="M7.9922 34.559C8.4692 34.999 9.0722 35.217 9.6742 35.217C10.3422 35.217 11.0082 34.948 11.4972 34.418C12.4262 33.411 12.3632 31.842 11.3582 30.914L8.0172 27.832C7.0102 26.904 5.4432 26.965 4.5132 27.973C3.5842 28.979 3.6472 30.549 4.6522 31.478L7.9922 34.559Z" fill="white"/>
<path d="M2.21115 40.08C3.13315 40.183 5.80615 40.51 7.05615 40.801C7.24515 40.845 7.43515 40.867 7.62115 40.867C8.74715 40.867 9.76915 40.092 10.0361 38.947C10.3451 37.613 9.51515 36.279 8.18115 35.969C6.39215 35.552 2.90115 35.167 2.75215 35.15C1.39415 34.995 0.168146 35.982 0.0151457 37.342C-0.134854 38.705 0.846146 39.931 2.21115 40.08Z" fill="white"/>
<path d="M6.78124 47.933C7.33824 47.606 7.86524 47.297 8.37124 47.073C9.62224 46.516 10.1842 45.051 9.62724 43.799C9.07224 42.547 7.60524 41.986 6.35324 42.54C5.59424 42.878 4.92424 43.271 4.27224 43.653C3.66824 44.007 3.09724 44.341 2.55224 44.57C1.28824 45.098 0.693236 46.551 1.21924 47.815C1.61724 48.765 2.53924 49.338 3.51024 49.338C3.82724 49.338 4.15224 49.276 4.46324 49.147C5.32024 48.79 6.06324 48.354 6.78124 47.933Z" fill="white"/>
</svg>
