<svg width="518" height="518" viewBox="0 0 518 518" fill="none" xmlns="http://www.w3.org/2000/svg">
<path d="M172.604 263.922C170.76 259.043 165.302 256.589 160.427 258.45L139.848 266.309C135.084 268.129 132.631 273.408 134.316 278.223L134.384 278.416L172.604 263.922Z" fill="#74697C"/>
<path d="M139.09 266.637C139.336 266.518 139.59 266.408 139.851 266.308L160.429 258.447C161.526 258.03 162.651 257.831 163.76 257.828C162.651 257.831 161.524 258.031 160.428 258.45L139.849 266.309C139.588 266.408 139.336 266.518 139.09 266.637Z" fill="#91E8FF"/>
<path d="M133.879 276.438C133.307 272.434 135.382 268.438 139.089 266.637C139.335 266.517 139.588 266.407 139.848 266.309L160.427 258.45C161.524 258.031 162.65 257.831 163.759 257.828C163.767 257.828 163.774 257.827 163.782 257.827C166.913 257.827 169.897 259.398 171.651 262.055C171.042 262.186 170.435 262.345 169.831 262.535C168.373 261.659 166.686 261.178 164.955 261.178C163.839 261.178 162.705 261.378 161.6 261.797L141.023 269.658C138.153 270.756 136.12 273.108 135.328 275.857L134.674 276.111C134.406 276.214 134.141 276.323 133.879 276.438Z" fill="#C0BBC4"/>
<path d="M359.64 263.922C361.484 259.043 366.942 256.589 371.817 258.45L392.394 266.309C397.16 268.129 399.611 273.408 397.928 278.223L397.86 278.416L359.64 263.922Z" fill="#74697C"/>
<path d="M398.365 276.438C398.364 276.438 398.365 276.438 398.364 276.438C398.633 274.552 398.317 272.667 397.518 271.015C398.317 272.669 398.635 274.553 398.365 276.438ZM395.212 267.995C394.401 267.291 393.455 266.713 392.394 266.309L371.816 258.45C370.72 258.031 369.593 257.831 368.484 257.828C369.593 257.831 370.72 258.03 371.818 258.447L392.395 266.308C393.455 266.713 394.401 267.289 395.212 267.995Z" fill="#91E8FF"/>
<path d="M398.364 276.438C398.103 276.323 397.837 276.214 397.569 276.111L396.67 275.761C395.825 273.126 393.832 270.891 391.055 269.825L370.478 261.966C369.373 261.545 368.239 261.345 367.124 261.345C365.488 261.345 363.894 261.774 362.495 262.561C361.865 262.359 361.231 262.191 360.594 262.055C362.348 259.398 365.329 257.827 368.461 257.827C368.469 257.827 368.477 257.828 368.485 257.828C369.593 257.831 370.72 258.031 371.817 258.45L392.394 266.309C393.455 266.713 394.402 267.291 395.212 267.995C395.213 267.995 395.213 267.995 395.213 267.995C395.213 267.996 395.215 267.996 395.215 267.996C396.189 268.843 396.968 269.874 397.519 271.015C398.318 272.667 398.634 274.552 398.364 276.438Z" fill="#C0BBC4"/>
<path d="M273.415 288.65H325.2C328.13 288.65 330.87 287.206 332.527 284.792L341.722 271.398C346.414 264.562 355.191 261.848 362.922 264.843L396.842 277.985C402.226 280.07 406.27 284.625 407.704 290.216L441.393 421.6C442.222 424.831 442.591 428.17 442.386 431.498C441.456 446.636 435.186 455.437 421.253 455.142C413.262 454.972 405.661 451.64 399.869 446.134L360.624 408.817C354.967 403.439 347.461 400.441 339.656 400.441H273.415H258.829H192.587C184.782 400.441 177.276 403.439 171.62 408.817L132.374 446.134C126.582 451.64 118.982 454.972 110.991 455.142C97.0577 455.437 90.7872 446.636 89.857 431.498C89.6527 428.17 90.0219 424.831 90.8499 421.6L124.54 290.216C125.973 284.625 130.018 280.07 135.4 277.985L169.321 264.843C177.052 261.848 185.83 264.562 190.522 271.398L199.716 284.792C201.374 287.206 204.114 288.65 207.043 288.65H258.829H273.415Z" fill="#74697C"/>
<path d="M289.196 354.478H233.341C233.166 350.162 232.075 346.077 230.258 342.414L240.301 337.574C240.426 337.513 240.56 337.433 240.675 337.346C242.49 335.97 244.042 333.816 244.5 331.48C244.706 330.535 244.786 329.601 244.775 328.689H300.057C302.102 328.689 303.936 329.588 305.187 331.011L304.277 337.131C296.801 340.071 291.087 346.541 289.196 354.478Z" fill="#827889"/>
<path d="M110.26 453.14C98.6376 453.14 92.7729 446.186 91.8631 431.375C91.6811 428.411 91.9814 425.345 92.7557 422.262C95.8675 429.021 101.519 432.768 110.323 432.768C110.544 432.768 110.766 432.766 110.99 432.76C118.984 432.593 126.583 429.256 132.372 423.749L171.618 386.438C175.292 382.942 179.751 380.45 184.563 379.133C186.05 380.329 187.653 381.385 189.352 382.283C193.92 385.511 199.496 387.41 205.518 387.41C213.822 387.41 221.283 383.797 226.414 378.056H295.59C299.471 385.092 306.957 389.856 315.561 389.856C324.165 389.856 331.654 385.09 335.536 378.056H339.654C347.46 378.056 354.964 381.058 360.62 386.438L399.866 423.749C405.662 429.256 413.261 432.593 421.256 432.76C421.48 432.766 421.702 432.768 421.922 432.768C430.727 432.768 436.377 429.027 439.489 422.27C440.262 425.35 440.561 428.413 440.38 431.375C439.468 446.206 433.605 453.139 421.938 453.139C421.726 453.139 421.511 453.136 421.296 453.132C413.943 452.977 406.825 449.974 401.254 444.677L362.008 407.36C355.953 401.603 348.013 398.431 339.656 398.431H192.587C184.229 398.431 176.291 401.603 170.235 407.36L130.989 444.677C125.418 449.974 118.3 452.977 110.948 453.132C110.716 453.137 110.488 453.14 110.26 453.14Z" fill="#5C5461"/>
<path d="M287.717 294.464H232.262L232.209 294.313L260.816 291.15L284.883 291.325L287.717 294.464ZM126.196 291.848L126.487 290.716C127.756 285.764 131.36 281.705 136.126 279.859L170.046 266.718C171.935 265.987 173.885 265.634 175.81 265.634C180.913 265.634 185.826 268.108 188.864 272.535L193.015 278.582C192.889 279.179 192.785 279.782 192.702 280.387L190.522 277.209C187.111 272.239 181.536 269.447 175.774 269.447C173.614 269.447 171.429 269.839 169.32 270.656L135.401 283.797C131.44 285.335 128.201 288.207 126.196 291.848ZM406.046 291.841C404.04 288.204 400.804 285.334 396.845 283.797L362.925 270.656C360.817 269.839 358.631 269.447 356.471 269.447C350.709 269.447 345.136 272.239 341.725 277.209L339.287 280.759L338.879 279.978L338.617 279.474L343.38 272.535C346.418 268.108 351.331 265.636 356.433 265.636C358.358 265.636 360.309 265.987 362.196 266.718L396.117 279.859C400.883 281.705 404.487 285.764 405.757 290.716L406.046 291.841Z" fill="#C0BBC4"/>
<path d="M364.7 307.077C359.797 307.077 355.822 303.103 355.822 298.198C355.822 297.969 355.831 297.741 355.848 297.516C357.732 300.412 360.997 302.331 364.7 302.331C368.405 302.331 371.67 300.412 373.553 297.517C373.571 297.741 373.579 297.969 373.579 298.198C373.579 303.103 369.604 307.077 364.7 307.077Z" fill="#5C5461"/>
<path d="M364.7 343.431C359.797 343.431 355.822 339.456 355.822 334.553C355.822 334.324 355.831 334.096 355.848 333.87C357.732 336.766 360.997 338.685 364.7 338.685C368.405 338.685 371.67 336.766 373.553 333.87C373.571 334.096 373.579 334.324 373.579 334.553C373.579 339.456 369.604 343.431 364.7 343.431Z" fill="#5C5461"/>
<path d="M346.524 325.253C345.047 325.253 343.655 324.893 342.43 324.256L342.758 322.413L343.193 319.969C344.241 320.318 345.361 320.507 346.524 320.507C350.227 320.507 353.492 318.589 355.376 315.694C355.393 315.919 355.402 316.146 355.402 316.375C355.402 321.279 351.427 325.253 346.524 325.253Z" fill="#5C5461"/>
<path d="M382.879 325.253C377.974 325.253 374 321.279 374 316.375C374 316.146 374.008 315.919 374.026 315.694C375.909 318.589 379.174 320.507 382.879 320.507C386.582 320.507 389.847 318.588 391.731 315.694C391.748 315.919 391.757 316.146 391.757 316.375C391.757 321.279 387.781 325.253 382.879 325.253Z" fill="#5C5461"/>
<path d="M192.588 398.431H339.657C348.014 398.431 355.953 401.603 362.009 407.36L401.255 444.677C406.826 449.974 413.943 452.977 421.296 453.132C421.511 453.136 421.726 453.139 421.939 453.139C433.605 453.139 439.469 446.207 440.381 431.375C440.566 428.359 440.251 425.238 439.447 422.1L405.758 290.716C404.487 285.764 400.883 281.705 396.118 279.859L362.197 266.718C355.303 264.048 347.564 266.439 343.38 272.535L334.186 285.93C332.153 288.891 328.795 290.66 325.201 290.66H207.044C203.45 290.66 200.092 288.891 198.059 285.93L188.865 272.535C184.681 266.439 176.942 264.048 170.047 266.718L136.127 279.859C131.36 281.705 127.757 285.764 126.487 290.716L92.7978 422.1C91.9928 425.238 91.6787 428.359 91.8639 431.375C92.7915 446.476 98.8689 453.408 110.949 453.132C118.301 452.977 125.418 449.974 130.99 444.677L170.236 407.36C176.292 401.603 184.23 398.431 192.588 398.431ZM421.939 457.16C421.698 457.16 421.456 457.157 421.211 457.152C412.854 456.974 404.784 453.579 398.484 447.59L359.239 410.274C353.933 405.23 346.979 402.451 339.657 402.451H192.588C185.266 402.451 178.312 405.23 173.006 410.274L133.76 447.59C127.461 453.579 119.39 456.974 111.034 457.152C110.79 457.157 110.546 457.16 110.305 457.16C96.4444 457.161 88.8922 448.573 87.851 431.621C87.6403 428.185 87.994 424.646 88.9037 421.102L122.593 289.717C124.184 283.512 128.701 278.425 134.675 276.111L168.595 262.969C177.237 259.622 186.935 262.62 192.18 270.26L201.374 283.654C202.656 285.523 204.776 286.639 207.044 286.639H325.201C327.469 286.639 329.588 285.523 330.871 283.654L340.065 270.26C345.31 262.62 355.005 259.62 363.65 262.969L397.57 276.111C403.543 278.425 408.06 283.512 409.652 289.717L443.341 421.102C444.25 424.646 444.604 428.185 444.394 431.621C443.353 448.571 435.799 457.16 421.939 457.16Z" fill="#232323"/>
<path d="M134.383 280.427C133.553 280.427 132.777 279.909 132.486 279.081L132.419 278.889C130.359 273.004 133.308 266.655 139.131 264.43L159.711 256.572C162.569 255.479 165.683 255.569 168.475 256.824C171.269 258.079 173.403 260.348 174.485 263.213C174.876 264.251 174.353 265.41 173.315 265.804C172.276 266.195 171.117 265.67 170.723 264.633C170.021 262.776 168.638 261.305 166.828 260.492C165.016 259.677 162.999 259.619 161.144 260.327L140.565 268.187C136.79 269.628 134.879 273.745 136.213 277.559L136.28 277.75C136.648 278.798 136.096 279.944 135.049 280.312C134.829 280.389 134.604 280.427 134.383 280.427Z" fill="#232323"/>
<path d="M245.651 314.895H230.518C228.914 314.895 227.614 313.595 227.614 311.991V307.97C227.614 306.367 228.914 305.067 230.518 305.067H245.651C247.254 305.067 248.554 306.367 248.554 307.97V311.991C248.554 313.595 247.254 314.895 245.651 314.895Z" fill="#232323"/>
<path d="M397.86 280.427C397.639 280.427 397.415 280.389 397.195 280.312C396.147 279.944 395.595 278.798 395.963 277.75L396.032 277.557C397.364 273.745 395.453 269.628 391.677 268.187L371.099 260.327C369.243 259.619 367.226 259.677 365.415 260.492C363.605 261.305 362.222 262.776 361.52 264.633C361.126 265.672 359.965 266.194 358.929 265.804C357.89 265.41 357.366 264.251 357.758 263.213C358.841 260.348 360.975 258.079 363.767 256.824C366.56 255.569 369.672 255.479 372.533 256.572L393.112 264.43C398.935 266.655 401.884 273.004 399.825 278.887L399.756 279.081C399.466 279.909 398.691 280.427 397.86 280.427Z" fill="#232323"/>
<path d="M282.461 314.895H301.433C303.198 314.895 304.629 313.464 304.629 311.699V308.262C304.629 306.498 303.198 305.067 301.433 305.067H282.461C280.696 305.067 279.267 306.498 279.267 308.262V311.699C279.267 313.464 280.696 314.895 282.461 314.895Z" fill="#232323"/>
<path d="M231.356 355.713C231.356 371.187 218.811 383.732 203.337 383.732C187.863 383.732 175.318 371.187 175.318 355.713C175.318 340.238 187.863 327.693 203.337 327.693C218.811 327.693 231.356 340.238 231.356 355.713Z" fill="#665E6D"/>
<path d="M226.414 378.056H223.38C229.38 372.668 233.204 364.908 233.362 356.266C233.476 357.293 233.534 358.337 233.534 359.393C233.534 366.561 230.842 373.101 226.414 378.056Z" fill="#C0BBC4"/>
<path d="M205.518 387.41C199.496 387.41 193.92 385.511 189.353 382.283C193.532 384.491 198.291 385.742 203.337 385.742C211.032 385.742 218.06 382.832 223.38 378.056H226.414C221.283 383.797 213.823 387.41 205.518 387.41Z" fill="#B5B2B8"/>
<path d="M178.049 361.807C177.578 359.852 177.328 357.811 177.328 355.713C177.328 341.813 188.288 330.424 202.021 329.737C201.897 329.978 201.778 330.22 201.662 330.463C200.832 332.262 200.224 334.173 199.932 336.162C199.268 336.309 198.615 336.478 197.97 336.671H196.626C195.923 336.671 195.322 337.104 195.074 337.718C185.533 341.769 178.701 350.955 178.049 361.807ZM227.025 344.978C226.817 344.741 226.604 344.509 226.388 344.278L226.635 344.159C226.77 344.428 226.901 344.702 227.025 344.978Z" fill="#524C57"/>
<path d="M203.337 329.704C188.995 329.704 177.329 341.371 177.329 355.713C177.329 370.054 188.995 381.722 203.337 381.722C217.678 381.722 229.346 370.054 229.346 355.713C229.346 341.371 217.678 329.704 203.337 329.704ZM203.337 385.742C186.78 385.742 173.308 372.271 173.308 355.713C173.308 339.155 186.78 325.683 203.337 325.683C219.895 325.683 233.367 339.155 233.367 355.713C233.367 372.271 219.895 385.742 203.337 385.742Z" fill="#232323"/>
<path d="M185.469 307.511C185.469 320.101 175.264 330.307 162.673 330.307C150.083 330.307 139.877 320.101 139.877 307.511C139.877 307.135 139.883 306.76 139.904 306.384C140.493 294.316 150.458 284.707 162.673 284.707C173.079 284.707 181.85 291.683 184.584 301.205C185.161 303.209 185.469 305.326 185.469 307.511Z" fill="#665E6D"/>
<path d="M164.904 337.134C155.857 337.134 148.044 331.866 144.361 324.228C148.902 329.195 155.43 332.316 162.673 332.316C175.43 332.316 185.967 322.638 187.332 310.239C187.574 311.57 187.7 312.941 187.7 314.338C187.7 326.929 177.495 337.134 164.904 337.134Z" fill="#5C5461"/>
<path d="M142.175 310.973C141.984 309.847 141.886 308.689 141.886 307.508C141.886 296.045 151.211 286.719 162.673 286.719C169.456 286.719 175.492 289.985 179.289 295.028C175.365 291.833 170.358 289.921 164.904 289.921C152.901 289.921 143.064 299.198 142.175 310.973Z" fill="#BAB6BD"/>
<path d="M162.673 328.295C153.441 328.295 145.596 322.246 142.892 313.904C147.062 318.457 153.06 321.314 159.718 321.314C160.271 321.314 160.817 321.295 161.361 321.256C161.792 321.296 162.231 321.317 162.673 321.317C166.207 321.317 169.43 319.991 171.872 317.807C177.63 314.172 181.647 308.031 182.389 300.914C183.085 302.987 183.461 305.204 183.461 307.508C183.461 318.97 174.136 328.295 162.673 328.295Z" fill="#524C57"/>
<path d="M162.673 286.719C151.211 286.719 141.885 296.045 141.885 307.508C141.885 318.97 151.211 328.295 162.673 328.295C174.136 328.295 183.461 318.97 183.461 307.508C183.461 296.045 174.136 286.719 162.673 286.719ZM162.673 332.316C148.993 332.316 137.864 321.187 137.864 307.508C137.864 293.828 148.993 282.7 162.673 282.7C176.353 282.7 187.482 293.828 187.482 307.508C187.482 321.187 176.353 332.316 162.673 332.316Z" fill="#232323"/>
<path d="M176.483 307.508C176.483 315.134 170.3 321.317 162.673 321.317C155.047 321.317 148.864 315.134 148.864 307.508C148.864 299.882 155.047 293.698 162.673 293.698C170.3 293.698 176.483 299.882 176.483 307.508Z" fill="#74697C"/>
<path d="M173.559 316.007C175.391 313.663 176.483 310.713 176.483 307.508C176.483 306.644 176.404 305.799 176.251 304.979C176.404 305.8 176.484 306.646 176.484 307.511C176.484 310.715 175.391 313.665 173.559 316.007Z" fill="#524C57"/>
<path d="M162.673 321.314C156.269 321.314 150.887 316.961 149.324 311.051C149.507 311.737 149.741 312.404 150.022 313.045C149.996 312.729 149.982 312.408 149.982 312.087C149.982 311.42 150.03 310.766 150.121 310.125C152.651 313.115 156.435 315.015 160.663 315.015C167.624 315.015 173.384 309.867 174.336 303.171C175.192 304.184 175.905 305.321 176.444 306.552C176.351 305.174 176.056 303.851 175.588 302.614C175.877 303.372 176.1 304.163 176.251 304.979C176.404 305.799 176.483 306.644 176.483 307.508C176.483 310.713 175.391 313.663 173.559 316.007C171.031 319.238 167.094 321.314 162.673 321.314Z" fill="#5C5461"/>
<path d="M149.08 309.947C148.937 309.155 148.863 308.342 148.863 307.511C148.863 303.092 150.935 299.162 154.16 296.634C150.937 299.162 148.865 303.093 148.865 307.508C148.865 308.339 148.938 309.155 149.08 309.947Z" fill="#BAB6BD"/>
<path d="M149.324 311.051C149.228 310.689 149.145 310.32 149.079 309.947C148.938 309.155 148.864 308.34 148.864 307.508C148.864 303.093 150.936 299.162 154.16 296.634C156.506 294.796 159.463 293.7 162.673 293.7C168.575 293.7 173.617 297.402 175.588 302.614C175.276 301.796 174.889 301.014 174.433 300.281C174.46 300.589 174.473 300.897 174.473 301.212C174.473 301.876 174.426 302.531 174.336 303.171C171.803 300.177 168.019 298.276 163.792 298.276C156.827 298.276 151.072 303.428 150.12 310.125C149.671 309.594 149.262 309.03 148.897 308.435C148.956 309.333 149.101 310.208 149.324 311.051Z" fill="#C0BBC4"/>
<path d="M150.022 313.045C149.741 312.404 149.506 311.737 149.324 311.051C149.101 310.208 148.956 309.333 148.896 308.435C149.262 309.03 149.671 309.594 150.12 310.125C150.03 310.766 149.982 311.42 149.982 312.087C149.982 312.408 149.996 312.729 150.022 313.045ZM176.444 306.552C175.905 305.321 175.191 304.184 174.335 303.171C174.426 302.531 174.473 301.876 174.473 301.212C174.473 300.897 174.46 300.589 174.433 300.281C174.888 301.014 175.276 301.796 175.588 302.614C176.055 303.851 176.35 305.174 176.444 306.552Z" fill="#B5B2B8"/>
<path d="M162.673 295.374C155.983 295.374 150.539 300.817 150.539 307.508C150.539 314.199 155.983 319.642 162.673 319.642C169.364 319.642 174.807 314.199 174.807 307.508C174.807 300.817 169.364 295.374 162.673 295.374ZM162.673 322.992C154.135 322.992 147.188 316.046 147.188 307.508C147.188 298.97 154.135 292.024 162.673 292.024C171.211 292.024 178.157 298.97 178.157 307.508C178.157 316.046 171.211 322.992 162.673 322.992Z" fill="#232323"/>
<path d="M336.126 360.231C336.126 372.823 325.921 383.027 313.33 383.027C300.74 383.027 290.534 372.823 290.534 360.231C290.534 359.856 290.541 359.482 290.561 359.106C291.151 347.038 301.114 337.429 313.33 337.429C323.737 337.429 332.508 344.404 335.241 353.926C335.818 355.929 336.126 358.047 336.126 360.231Z" fill="#665E6D"/>
<path d="M335.536 378.056H330.567C333.86 374.871 336.277 370.786 337.414 366.2C337.723 366.209 338.033 366.214 338.344 366.218C338.353 366.498 338.358 366.778 338.358 367.06C338.358 371.047 337.335 374.795 335.536 378.056ZM296.094 378.056H295.591C295.391 377.693 295.2 377.324 295.02 376.951C295.367 377.329 295.725 377.698 296.094 378.056Z" fill="#5C5461"/>
<path d="M315.561 389.856C306.957 389.856 299.471 385.092 295.59 378.056H296.094C300.56 382.376 306.64 385.039 313.33 385.039C320.02 385.039 326.1 382.376 330.567 378.056H335.535C331.654 385.09 324.165 389.856 315.561 389.856Z" fill="#4B454E"/>
<path d="M292.832 363.697C292.641 362.569 292.543 361.41 292.543 360.229C292.543 352.29 297.015 345.378 303.572 341.877L302.887 346.486C297.237 350.273 293.374 356.521 292.832 363.697Z" fill="#BAB6BD"/>
<path d="M313.33 381.017C304.098 381.017 296.251 374.967 293.549 366.625C296.628 369.988 300.706 372.425 305.31 373.47C307.65 374.893 310.397 375.713 313.33 375.713C319.788 375.713 325.336 371.739 327.655 366.108C327.853 365.879 328.046 365.646 328.234 365.409C328.794 365.493 329.354 365.569 329.915 365.638C331.046 365.773 332.176 365.889 333.309 365.981C330.807 374.655 322.798 381.017 313.33 381.017Z" fill="#524C57"/>
<path d="M313.331 339.442C301.869 339.442 292.543 348.767 292.543 360.229C292.543 371.692 301.869 381.018 313.331 381.018C324.793 381.018 334.119 371.692 334.119 360.229C334.119 348.767 324.793 339.442 313.331 339.442ZM313.331 385.039C299.652 385.039 288.522 373.909 288.522 360.229C288.522 346.55 299.652 335.421 313.331 335.421C327.01 335.421 338.139 346.55 338.139 360.229C338.139 373.909 327.01 385.039 313.331 385.039Z" fill="#232323"/>
<path d="M327.14 360.229C327.14 367.856 320.958 374.039 313.33 374.039C305.704 374.039 299.521 367.856 299.521 360.229C299.521 352.603 305.704 346.42 313.33 346.42C320.958 346.42 327.14 352.603 327.14 360.229Z" fill="#74697C"/>
<path d="M313.33 372.363C307.917 372.363 303.32 368.799 301.762 363.895C304.242 366.274 307.61 367.737 311.32 367.737C315.048 367.737 318.432 366.26 320.917 363.859C321.689 364.076 322.466 364.277 323.246 364.461C323.693 364.561 324.142 364.658 324.591 364.751C322.794 369.208 318.423 372.363 313.33 372.363Z" fill="#5C5461"/>
<path d="M301.213 360.858C301.201 360.65 301.196 360.44 301.196 360.229C301.196 357.768 301.933 355.476 303.197 353.561C303.501 354.214 303.892 354.826 304.363 355.375C302.923 356.914 301.831 358.784 301.213 360.858Z" fill="#C0BBC4"/>
<path d="M313.33 348.096C306.64 348.096 301.196 353.539 301.196 360.229C301.196 366.92 306.64 372.363 313.33 372.363C320.021 372.363 325.464 366.92 325.464 360.229C325.464 353.539 320.021 348.096 313.33 348.096ZM313.33 375.713C304.792 375.713 297.846 368.767 297.846 360.229C297.846 351.691 304.792 344.745 313.33 344.745C321.869 344.745 328.814 351.691 328.814 360.229C328.814 368.767 321.869 375.713 313.33 375.713Z" fill="#232323"/>
<path d="M210.415 338.347V350.02L203.44 356.835L196.626 349.852V338.347H210.415Z" fill="#74697C"/>
<path d="M199.987 341.583H198.301V340.023H199.786C199.797 340.163 199.808 340.304 199.822 340.445C199.861 340.822 199.916 341.203 199.987 341.583Z" fill="#C0BBC4"/>
<path d="M210.248 363.809V375.369H196.458V363.642L203.441 356.835L210.248 363.809Z" fill="#74697C"/>
<path d="M210.335 374.95H210.248V363.81L205.553 358.999V358.997L210.255 363.816H210.335V374.95Z" fill="#BAB6BD"/>
<path d="M210.248 374.95H210.088V368.417L203.28 361.441L196.546 368.008V363.557L201.249 358.971L202.241 358.004C202.552 358.323 202.977 358.504 203.421 358.509H203.44C203.877 358.509 204.296 358.339 204.61 358.034L205.551 358.999H205.553L210.248 363.81V374.95Z" fill="#C0BBC4"/>
<path d="M203.441 356.835L196.458 363.642H184.9V349.852H196.627L203.441 356.835Z" fill="#74697C"/>
<path d="M201.25 358.971L195.453 353.035H184.9V349.852H194.951C194.951 350.29 195.122 350.709 195.427 351.023L202.242 358.004L201.25 358.971Z" fill="#C0BBC4"/>
<path d="M203.44 356.833L210.423 350.025H221.981V363.816H210.255L203.44 356.833Z" fill="#74697C"/>
<path d="M205.553 358.999L204.611 358.034L205.553 358.997V358.999Z" fill="#E0DEE1"/>
<path d="M205.552 358.999L204.61 358.034H204.612L205.553 358.999H205.552Z" fill="#E3E0E4"/>
<path d="M205.553 358.997L204.611 358.034C204.611 358.033 204.611 358.033 204.611 358.033L211.587 351.218C211.907 350.905 212.089 350.478 212.091 350.029C212.099 350.028 212.107 350.027 212.115 350.027H221.981V353.324H211.374L205.553 358.997Z" fill="#C0BBC4"/>
<path d="M198.3 349.171L203.469 354.465L208.741 349.315V340.023H198.3V349.171ZM203.44 358.509H203.421C202.977 358.504 202.552 358.323 202.241 358.004L195.427 351.023C195.121 350.709 194.95 350.29 194.95 349.852V338.347C194.95 337.423 195.7 336.671 196.626 336.671H210.415C211.341 336.671 212.091 337.423 212.091 338.347V350.019C212.091 350.471 211.908 350.902 211.587 351.218L204.611 358.032C204.298 358.338 203.878 358.509 203.44 358.509Z" fill="#232323"/>
<path d="M198.133 373.694H208.574V364.492L203.412 359.203L198.133 364.348V373.694ZM210.248 377.044H196.458C195.533 377.044 194.783 376.293 194.783 375.369V363.642C194.783 363.191 194.966 362.758 195.288 362.443L202.271 355.635C202.933 354.989 203.993 355.001 204.639 355.664L211.447 362.64C211.753 362.952 211.924 363.373 211.924 363.81V375.369C211.924 376.293 211.174 377.044 210.248 377.044Z" fill="#232323"/>
<path d="M186.575 361.967H195.777L201.071 356.805L195.921 351.528H186.575V361.967ZM196.458 365.317H184.899C183.974 365.317 183.225 364.567 183.225 363.642V349.852C183.225 348.927 183.974 348.178 184.899 348.178H196.627C197.077 348.178 197.51 348.359 197.826 348.683L204.64 355.664C204.951 355.983 205.122 356.41 205.117 356.855C205.11 357.3 204.929 357.724 204.61 358.034L197.628 364.842C197.316 365.147 196.895 365.317 196.458 365.317Z" fill="#232323"/>
<path d="M210.96 362.14H220.306V351.701H211.104L205.81 356.863L210.96 362.14ZM221.981 365.49H210.255C209.804 365.49 209.371 365.309 209.055 364.985L202.241 358.004C201.932 357.686 201.759 357.258 201.766 356.813C201.771 356.368 201.954 355.945 202.271 355.634L209.253 348.826C209.566 348.521 209.986 348.351 210.423 348.351H221.981C222.907 348.351 223.656 349.101 223.656 350.026V363.816C223.656 364.741 222.907 365.49 221.981 365.49Z" fill="#232323"/>
<path d="M373.579 291.776C373.579 296.68 369.604 300.655 364.7 300.655C359.797 300.655 355.822 296.68 355.822 291.776C355.822 286.873 359.797 282.898 364.7 282.898C369.604 282.898 373.579 286.873 373.579 291.776Z" fill="#1FD3C9"/>
<path d="M364.7 284.574C360.729 284.574 357.498 287.805 357.498 291.777C357.498 295.748 360.729 298.981 364.7 298.981C368.672 298.981 371.904 295.748 371.904 291.777C371.904 287.805 368.672 284.574 364.7 284.574ZM364.7 302.331C358.882 302.331 354.147 297.596 354.147 291.777C354.147 285.958 358.882 281.224 364.7 281.224C370.52 281.224 375.255 285.958 375.255 291.777C375.255 297.596 370.52 302.331 364.7 302.331Z" fill="#232323"/>
<path d="M373.579 328.131C373.579 333.034 369.604 337.01 364.7 337.01C359.797 337.01 355.822 333.034 355.822 328.131C355.822 323.228 359.797 319.252 364.7 319.252C369.604 319.252 373.579 323.228 373.579 328.131Z" fill="#A17AF4"/>
<path d="M364.7 320.928C360.729 320.928 357.498 324.159 357.498 328.131C357.498 332.103 360.729 335.335 364.7 335.335C368.672 335.335 371.904 332.103 371.904 328.131C371.904 324.159 368.672 320.928 364.7 320.928ZM364.7 338.685C358.882 338.685 354.147 333.951 354.147 328.131C354.147 322.313 358.882 317.578 364.7 317.578C370.52 317.578 375.255 322.313 375.255 328.131C375.255 333.951 370.52 338.685 364.7 338.685Z" fill="#232323"/>
<path d="M346.524 318.833C341.62 318.833 337.646 314.857 337.646 309.954C337.646 305.05 341.62 301.076 346.524 301.076C351.427 301.076 355.403 305.05 355.403 309.954C355.403 314.857 351.427 318.833 346.524 318.833Z" fill="#3646D2"/>
<path d="M346.524 302.75C342.552 302.75 339.32 305.983 339.32 309.954C339.32 313.925 342.552 317.157 346.524 317.157C350.496 317.157 353.728 313.925 353.728 309.954C353.728 305.983 350.496 302.75 346.524 302.75ZM346.524 320.507C340.704 320.507 335.97 315.773 335.97 309.954C335.97 304.135 340.704 299.4 346.524 299.4C352.344 299.4 357.078 304.135 357.078 309.954C357.078 315.773 352.344 320.507 346.524 320.507Z" fill="#232323"/>
<path d="M382.879 318.833C377.974 318.833 374 314.857 374 309.954C374 305.05 377.974 301.076 382.879 301.076C387.781 301.076 391.757 305.05 391.757 309.954C391.757 314.857 387.781 318.833 382.879 318.833Z" fill="#F437EC"/>
<path d="M382.878 302.75C378.907 302.75 375.674 305.983 375.674 309.954C375.674 313.925 378.907 317.157 382.878 317.157C386.85 317.157 390.081 313.925 390.081 309.954C390.081 305.983 386.85 302.75 382.878 302.75ZM382.878 320.507C377.059 320.507 372.324 315.773 372.324 309.954C372.324 304.135 377.059 299.4 382.878 299.4C388.697 299.4 393.431 304.135 393.431 309.954C393.431 315.773 388.697 320.507 382.878 320.507Z" fill="#232323"/>
<path d="M346.47 310.929C345.891 310.929 345.342 310.839 344.846 310.674L345.094 309.281L345.327 307.966C345.405 307.533 345.484 307.098 345.557 306.613C345.64 306.097 345.708 305.577 345.766 305.057C345.994 305.027 346.23 305.011 346.47 305.011C348.675 305.011 350.462 306.336 350.462 307.97C350.462 309.605 348.675 310.929 346.47 310.929Z" fill="#F5E5A3"/>
<path d="M364.7 292.279C362.496 292.279 360.708 290.954 360.708 289.32C360.708 287.686 362.496 286.361 364.7 286.361C366.906 286.361 368.693 287.686 368.693 289.32C368.693 290.954 366.906 292.279 364.7 292.279Z" fill="#A9F1AD"/>
<path d="M382.878 310.371C380.673 310.371 378.886 309.047 378.886 307.412C378.886 305.778 380.673 304.452 382.878 304.452C385.082 304.452 386.871 305.778 386.871 307.412C386.871 309.047 385.082 310.371 382.878 310.371Z" fill="#FAA5B5"/>
<path d="M364.7 328.131C362.496 328.131 360.708 326.806 360.708 325.172C360.708 323.537 362.496 322.211 364.7 322.211C366.906 322.211 368.693 323.537 368.693 325.172C368.693 326.806 366.906 328.131 364.7 328.131Z" fill="#C4C3FA"/>
<path d="M415.35 408.157C415.165 408.157 414.977 408.15 414.788 408.137L411.323 407.895C408.589 407.705 406.159 406.091 404.92 403.645L381.1 356.552C379.278 352.95 380.512 348.553 383.944 346.425L394.542 339.856C395.832 339.057 397.244 338.684 398.629 338.684C401.894 338.684 405.019 340.752 406.076 344.168L422.764 398.074C424.326 403.118 420.525 408.158 415.35 408.157Z" fill="#827889"/>
<path d="M118.105 408.157C112.93 408.157 109.13 403.118 110.691 398.074L127.38 344.168C128.437 340.752 131.562 338.684 134.826 338.684C136.212 338.684 137.623 339.057 138.913 339.856L149.512 346.425C152.943 348.553 154.177 352.95 152.355 356.552L128.534 403.645C127.297 406.091 124.866 407.705 122.132 407.895L118.667 408.137C118.478 408.15 118.291 408.157 118.105 408.157Z" fill="#827889"/>
<path d="M388.461 146.02C387.236 151.809 383.451 156.723 378.351 159.71L312.68 198.217L294.803 193.074L285.999 190.542L276.88 187.916L310.098 160.943L324.66 153.723L358.588 136.91C363.84 126.903 368.653 127.036 373.164 134.342C375.264 133.505 377.156 133.029 378.829 132.86C386.934 132.024 390.082 138.347 388.461 146.02Z" fill="white"/>
<path d="M189.249 183.198C167.15 167.01 177.193 150.132 177.193 150.132L200.587 177.506" fill="white"/>
<path d="M333.015 253.764C333.154 256.617 331.966 259.369 329.802 261.233L327.983 262.794L327.594 263.132L215.677 256.068L208.699 214.547L323.119 192.524C327.631 208.788 330.462 224.523 331.966 239.613C332.451 244.396 332.795 249.113 333.015 253.764Z" fill="white"/>
<path d="M318.079 127.916C318.079 167.784 285.76 200.102 245.893 200.102C206.025 200.102 173.706 167.784 173.706 127.916C173.706 88.0483 206.025 55.7303 245.893 55.7303C285.76 55.7303 318.079 88.0483 318.079 127.916Z" fill="white"/>
<path d="M245.893 197.902C243.273 197.902 240.689 197.758 238.143 197.476C239.022 197.124 239.897 196.76 240.768 196.383C256.451 195.167 272.662 188.267 286.579 176.859C300.398 165.529 310.255 150.839 313.712 136.45C314.22 136.744 314.737 137.004 315.261 137.23C310.695 171.435 281.327 197.902 245.893 197.902ZM300.638 103.933C296.148 100.224 291.19 97.1029 285.843 94.601C285.064 92.6689 284.206 90.7795 283.269 88.9354C289.703 92.1431 295.529 96.2586 300.481 101.225C300.681 101.426 300.915 101.569 301.165 101.659C300.95 102.388 300.774 103.147 300.638 103.933ZM302.627 98.1881C296.377 92.0421 288.797 87.1029 280.242 83.5559C273.733 73.0664 264.609 64.3692 253.778 58.3721C276.612 60.9453 296.155 74.5466 306.936 93.7101C305.123 94.8056 303.692 96.3311 302.627 98.1881Z" fill="#BDBDBD"/>
<path d="M313.558 194.364C313.525 194.275 313.491 194.187 313.457 194.097C313.117 193.262 312.755 192.434 312.397 191.607C312.04 190.779 311.684 189.952 311.284 189.141L310.103 186.707C309.69 185.904 309.25 185.114 308.825 184.32C307.978 182.73 307.006 181.199 306.032 179.685C305.894 179.474 305.66 179.346 305.41 179.346C305.334 179.346 305.255 179.359 305.178 179.383C304.839 179.496 304.636 179.832 304.677 180.173L296.907 182.011C293.556 185.18 289.902 188.034 285.999 190.542H285.998C297.792 182.963 307.319 172.142 313.307 159.351L324.66 153.723C321.88 162.74 317.382 170.992 311.543 178.116C313.723 179.995 317.038 180.322 319.081 180.322C320.174 180.322 320.903 180.229 320.903 180.229C320.903 180.229 371.148 151.031 377.2 145.713C382.416 141.128 379.686 134.584 378.829 132.861C379.313 132.81 379.781 132.785 380.23 132.785C386.019 132.785 388.87 136.827 388.873 142.256C388.874 143.454 388.736 144.718 388.461 146.02C387.236 151.809 383.451 156.724 378.351 159.71L324.285 191.413C323.89 190.739 323.162 190.322 322.384 190.322C322.189 190.322 321.993 190.348 321.796 190.403C320.637 190.725 319.954 191.916 320.253 193.075L313.558 194.364Z" fill="#BDBDBD"/>
<path d="M314.608 197.086C314.264 196.176 313.904 195.272 313.558 194.364L320.253 193.075C320.257 193.087 320.261 193.1 320.264 193.112C320.317 193.301 320.369 193.49 320.42 193.678L314.608 197.086Z" fill="#BDBDBD"/>
<path d="M241.793 193.521C238.873 194.856 235.865 196.059 232.776 197.138C231.699 197.52 230.606 197.886 229.505 198.231C229.285 198.179 229.057 198.128 228.837 198.069C215.662 194.886 203.903 188.078 194.659 178.768C196.471 177.763 198.459 177.052 200.513 176.648L239.101 169.004C248.087 160.568 256.53 159.372 254.689 169.004C276.081 168.513 270.77 193.03 241.793 193.521Z" fill="white"/>
<path d="M245.893 57.9306C207.302 57.9306 175.908 89.3266 175.908 127.916C175.908 166.507 207.302 197.902 245.893 197.902C284.483 197.902 315.879 166.507 315.879 127.916C315.879 89.3266 284.483 57.9306 245.893 57.9306ZM245.893 202.304C204.875 202.304 171.506 168.934 171.506 127.916C171.506 86.8998 204.875 53.5302 245.893 53.5302C286.91 53.5302 320.281 86.8998 320.281 127.916C320.281 168.934 286.91 202.304 245.893 202.304Z" fill="#232323"/>
<path d="M312.078 135.369C305.374 165.006 271.966 192.832 239.225 194.651L231.419 198.217C212.969 193.535 200.25 183.624 191.915 174.382C182.357 163.773 178.579 154.039 178.579 154.039C170.877 97.2959 256.348 68.3993 300.364 106.098L300.422 106.246L312.078 135.369Z" fill="#232323"/>
<path d="M312.078 135.369C305.374 165.006 271.965 192.832 239.225 194.651L231.419 198.217C212.969 193.535 200.25 183.624 191.915 174.382C253.508 179.128 293.812 160.877 300.422 106.246L312.078 135.369Z" fill="#020202"/>
<path d="M346.968 354.611C347.005 356.431 346.572 358.368 345.699 360.414C344.774 362.578 342.654 364.031 340.3 364.039C330.103 364.075 321.248 362.417 313.846 358.918C311.411 357.759 309.129 356.409 307.009 354.847C305.264 353.562 304.383 351.406 304.698 349.264L309.709 315.54L285.867 289.131L260.697 288.947L229.197 292.432L237.391 315.299C243.699 325.29 244.162 331.943 239.342 335.589L215.749 346.96C206.015 350.137 201.885 345.045 201.929 338.685C201.965 333.557 204.709 327.608 209.412 324.527L196.771 294.391C194.623 289.271 194.006 283.57 195.363 278.179C198.232 266.764 208.311 260.11 224.304 250.984L218.86 214.547C202.97 218.97 176.297 198.883 189.245 183.2C190.279 181.953 191.468 180.86 192.773 179.935C193.376 179.509 194.006 179.121 194.659 178.768C195.356 178.38 196.074 178.042 196.815 177.741C198.004 177.265 199.243 176.898 200.512 176.648L239.101 169.004C248.087 160.568 256.53 159.372 254.689 169.004C257.617 168.938 260.045 169.342 261.981 170.083C273.799 174.624 267.248 191.951 244.118 193.419C243.363 193.477 242.584 193.507 241.793 193.521C239.151 194.732 236.437 195.825 233.657 196.822L233.642 196.83L233.37 196.925C233.172 196.998 232.974 197.072 232.776 197.138C231.705 197.52 230.628 197.879 229.535 198.223L229.505 198.231L228.302 199.199L227.355 199.962C229.695 200.563 232.073 201.055 234.493 201.422C238.212 202.002 242.02 202.302 245.893 202.302C260.653 202.302 274.415 197.981 285.999 190.542C289.902 188.034 293.555 185.18 296.907 182.011L305.374 180.009C305.894 181.072 306.407 182.157 306.907 183.258C309.027 187.916 310.949 192.904 312.68 198.217C317.624 213.321 321.065 231.023 323.185 250.984C323.493 253.859 324.308 256.655 325.583 259.251C325.671 259.427 325.76 259.603 325.848 259.78L340.33 287.509C343.425 293.437 344.467 300.222 343.3 306.81L336.851 343.051C343.675 346.051 346.873 349.947 346.968 354.611Z" fill="white"/>
<path d="M255.679 204.584C248.307 204.584 241.191 203.483 234.493 201.422C238.212 202.002 242.02 202.302 245.893 202.302C260.653 202.302 274.415 197.981 285.999 190.542C289.902 188.034 293.556 185.18 296.907 182.011L304.677 180.173C304.682 180.221 304.694 180.269 304.709 180.317L304.715 180.331C305.139 181.615 305.563 182.894 305.984 184.17C302.562 187.493 298.817 190.478 294.803 193.074C283.527 200.358 270.094 204.584 255.679 204.584Z" fill="#BDBDBD"/>
<path d="M178.576 155.874C177.672 155.874 176.886 155.207 176.761 154.286C175.129 142.265 177.411 131.022 183.544 120.869C189.075 111.716 197.689 103.779 208.457 97.9137C222.437 90.2991 239.202 86.5462 255.664 87.3569C273.452 88.2271 289.322 94.2256 301.557 104.706C302.327 105.365 302.416 106.523 301.758 107.292C301.099 108.063 299.941 108.151 299.172 107.493C273.492 85.4947 234.98 87.6431 210.212 101.134C188.338 113.048 177.47 132.242 180.396 153.794C180.532 154.798 179.829 155.721 178.825 155.857C178.741 155.869 178.658 155.874 178.576 155.874Z" fill="#232323"/>
<path d="M173.708 129.75C173.568 129.75 173.427 129.734 173.284 129.702C172.299 129.468 171.689 128.48 171.922 127.494C174.658 115.925 180.716 105.834 189.926 97.5006C198.309 89.9145 209.14 84.0948 221.248 80.6682C235.467 76.6433 250.553 76.0347 264.87 78.9096C280.035 81.9541 293.248 88.7749 303.078 98.635C303.794 99.3524 303.792 100.514 303.074 101.229C302.358 101.944 301.196 101.942 300.482 101.225C281.979 82.6677 251.272 75.9855 222.247 84.1971C197.514 91.1965 180.471 107.286 175.492 128.338C175.291 129.183 174.539 129.75 173.708 129.75Z" fill="#232323"/>
<path d="M239.226 196.481C238.261 196.481 237.452 195.726 237.397 194.748C237.342 193.738 238.116 192.872 239.127 192.816C270.455 191.077 303.712 164.043 310.294 134.961C310.518 133.973 311.502 133.356 312.488 133.577C313.476 133.799 314.095 134.782 313.872 135.77C310.566 150.374 300.618 165.351 286.58 176.859C272.237 188.617 255.457 195.584 239.329 196.479C239.296 196.48 239.261 196.481 239.226 196.481Z" fill="#232323"/>
<path d="M200.737 174.374C200.535 174.348 200.335 174.249 200.183 174.058C181.197 150.514 185.592 127.831 223.134 106.367C223.283 106.282 223.432 106.244 223.573 106.244C224.258 106.244 224.762 107.121 224.191 107.722C215.681 116.668 208.98 126.449 203.958 137.007C201.57 142.028 200.379 147.526 200.411 153.087C200.447 159.719 200.9 166.501 201.721 173.412C201.768 173.801 201.57 174.107 201.289 174.264L200.737 174.374Z" fill="#707070"/>
<path d="M280.16 122.844C278.487 122.844 276.823 122.068 275.683 120.609C273.053 117.238 269.915 114.139 266.274 111.313C261.384 107.521 264.145 99.7125 270.177 99.7125C270.313 99.7125 270.449 99.7164 270.587 99.7254C274.932 99.9754 279.774 102.165 283.286 105.195C288.29 109.512 288.765 116.884 283.887 121.343C283.834 121.392 283.78 121.44 283.725 121.488C282.679 122.405 281.418 122.844 280.16 122.844Z" fill="#707070"/>
<path d="M285.78 145.864C285.667 145.533 285.583 145.182 285.528 144.815C284.975 141.041 284.112 137.463 283.431 134.953C282.69 132.232 284.047 129.32 286.668 128.28C287.458 127.967 288.226 127.815 288.974 127.815C290.697 127.815 292.315 128.617 293.845 130.084C294.022 130.255 294.195 130.43 294.36 130.61C292.044 136.282 289.174 141.357 285.78 145.864Z" fill="#707070"/>
<path d="M291.227 149.729C288.913 149.729 286.606 148.319 285.779 145.864C289.173 141.357 292.043 136.282 294.36 130.61C296.872 133.336 297.994 137.089 297.682 140.812C297.451 143.552 296.819 145.662 295.825 147.2C294.701 148.937 292.963 149.729 291.227 149.729Z" fill="#5A5A5A"/>
<path d="M281.931 245.699C281.07 245.699 280.302 245.09 280.132 244.214L277.002 228.058C276.693 226.466 275.29 225.308 273.668 225.308H266.612C263.725 225.308 261.225 223.154 260.798 220.296L258.886 207.487C258.737 206.486 259.429 205.553 260.43 205.404C261.432 205.248 262.365 205.944 262.514 206.946L264.425 219.755C264.586 220.83 265.526 221.64 266.612 221.64H273.668C277.044 221.64 279.96 224.047 280.602 227.36L283.732 243.517C283.925 244.51 283.275 245.474 282.281 245.665C282.163 245.689 282.046 245.699 281.931 245.699Z" fill="#232323"/>
<path d="M306.032 179.685C307.006 181.199 307.979 182.73 308.825 184.32C309.25 185.114 309.691 185.904 310.104 186.707L311.285 189.141C311.685 189.952 312.041 190.779 312.397 191.607C312.756 192.434 313.117 193.262 313.458 194.097C314.095 195.781 314.786 197.453 315.35 199.163C315.932 200.867 316.501 202.579 316.975 204.316C317.489 206.042 317.924 207.788 318.344 209.536C319.191 213.031 319.95 216.541 320.684 220.054C322.143 227.081 323.293 234.159 324.237 241.256C324.457 243.033 324.709 244.805 324.903 246.584L325.205 249.25L325.356 250.582C325.404 251.018 325.452 251.396 325.513 251.804C325.764 253.403 326.18 254.979 326.769 256.488C327.062 257.243 327.396 257.981 327.767 258.701L328.999 261.06L338.88 279.978L341.351 284.707L341.968 285.891L342.277 286.481L342.595 287.121C343.025 287.973 343.405 288.85 343.75 289.739C345.14 293.293 345.894 297.095 345.957 300.911C345.991 302.818 345.857 304.729 345.557 306.613C345.484 307.098 345.405 307.533 345.328 307.967L345.095 309.281L344.627 311.907L342.758 322.414L339.021 343.427L339.02 343.435L337.738 341.034C339.85 341.978 341.939 343.104 343.862 344.636C345.782 346.137 347.514 348.22 348.452 350.751C349.378 353.29 349.314 356.091 348.673 358.487C348.491 359.078 348.349 359.697 348.114 360.253L347.787 361.107C347.742 361.238 347.661 361.411 347.58 361.581C347.503 361.75 347.416 361.915 347.323 362.077C346.595 363.377 345.508 364.473 344.202 365.207C343.55 365.573 342.844 365.852 342.111 366.024C341.743 366.107 341.371 366.169 340.996 366.203C340.808 366.222 340.62 366.225 340.433 366.234C340.299 366.239 340.214 366.238 340.127 366.235C340.08 366.235 340.035 366.234 339.982 366.234C338.864 366.219 337.747 366.226 336.628 366.169C334.39 366.102 332.15 365.904 329.916 365.638C327.681 365.366 325.456 364.957 323.247 364.461C321.04 363.94 318.858 363.285 316.716 362.503C314.574 361.714 312.49 360.749 310.475 359.654C309.978 359.368 309.468 359.102 308.981 358.799L307.519 357.884L306.101 356.901L305.747 356.653C305.622 356.563 305.456 356.428 305.315 356.315C305.026 356.073 304.755 355.81 304.501 355.532C303.489 354.414 302.818 353.009 302.56 351.535C302.432 350.799 302.405 350.044 302.483 349.3C302.527 348.882 302.565 348.675 302.606 348.391L302.726 347.583L303.687 341.109L307.533 315.217L308.076 317.015L284.233 290.606L285.851 291.332L260.685 291.148L260.943 291.135L229.439 294.619L231.269 291.69L239.461 314.553L239.249 314.12C240.262 315.774 241.265 317.438 242.117 319.229C242.973 321.014 243.744 322.877 244.254 324.904C244.754 326.92 245.005 329.162 244.5 331.48C244.042 333.816 242.49 335.97 240.675 337.346C240.56 337.433 240.426 337.513 240.301 337.574L216.703 348.945L216.671 348.961C216.596 348.997 216.509 349.03 216.431 349.054C214.854 349.537 213.227 349.947 211.483 350.09C209.742 350.209 207.866 350.076 206.046 349.37C204.219 348.689 202.595 347.298 201.563 345.664C200.505 344.026 200.005 342.201 199.823 340.445C199.477 336.91 200.251 333.523 201.663 330.463C203.094 327.417 205.262 324.631 208.205 322.687L207.382 325.378L198.671 304.611L196.493 299.418L195.404 296.823C195.043 295.961 194.678 295.111 194.305 294.139C192.891 290.348 192.229 286.247 192.512 282.161C192.673 280.127 193.021 278.077 193.675 276.143L193.897 275.409L194.175 274.694L194.745 273.267C194.963 272.805 195.2 272.351 195.427 271.893L195.775 271.209C195.898 270.985 196.037 270.773 196.168 270.554C198.258 267.039 201.049 264.082 204.047 261.585C207.045 259.067 210.231 256.905 213.451 254.87C216.676 252.841 219.946 250.942 223.216 249.073L222.13 251.309L216.686 214.874L219.452 216.669C216.994 217.342 214.482 217.476 212.06 217.28C209.634 217.082 207.281 216.556 205.022 215.812C200.517 214.291 196.357 211.936 192.726 208.878C190.916 207.342 189.24 205.619 187.797 203.669C186.359 201.722 185.146 199.537 184.397 197.118C183.644 194.712 183.401 192.048 183.875 189.479C184.333 186.907 185.496 184.518 187.005 182.529C189.986 178.465 194.52 175.778 199.288 174.663L212.465 172.037L238.673 166.845L237.594 167.399C239.074 166.025 240.627 164.714 242.332 163.546C244.033 162.376 245.857 161.317 248.006 160.595C249.087 160.251 250.266 159.979 251.64 160.032C252.334 160.077 253.077 160.213 253.822 160.533C254.568 160.87 255.266 161.407 255.781 162.052C256.304 162.704 256.597 163.408 256.817 164.086C256.994 164.751 257.101 165.405 257.124 166.011C257.183 167.236 257.046 168.349 256.852 169.417L254.639 166.804C256.919 166.775 259.261 166.958 261.594 167.647C262.76 167.973 263.911 168.494 265.016 169.135C266.089 169.846 267.155 170.659 267.962 171.775L268.274 172.177C268.367 172.32 268.451 172.471 268.539 172.618C268.708 172.917 268.894 173.209 269.038 173.52C269.301 174.158 269.568 174.798 269.691 175.474C269.878 176.141 269.886 176.821 269.942 177.494C269.907 178.157 269.913 178.837 269.768 179.47C269.575 180.777 269.092 181.959 268.561 183.091C267.976 184.183 267.313 185.221 266.531 186.132C264.988 187.977 263.148 189.468 261.19 190.685C259.23 191.902 257.145 192.86 255.003 193.566C252.865 194.286 250.679 194.825 248.478 195.146C246.278 195.518 244.068 195.64 241.862 195.717L241.827 195.72L242.708 195.519C239.749 196.874 236.728 198.081 233.668 199.157C230.601 200.21 227.544 201.296 224.415 202.131C221.287 202.97 218.086 203.483 214.882 203.872C211.676 204.243 208.455 204.468 205.216 204.392C204.806 204.383 204.481 204.043 204.49 203.632C204.498 203.308 204.714 203.037 205.005 202.941C208.064 201.946 211.12 201.103 214.153 200.225C217.191 199.365 220.194 198.451 223.216 197.645C226.236 196.839 229.27 196.064 232.207 195.006C235.15 193.97 238.046 192.813 240.873 191.518C241.136 191.398 241.41 191.334 241.682 191.321L241.754 191.318L241.786 191.317C243.804 191.242 245.824 191.134 247.797 190.798C249.78 190.511 251.717 190.028 253.583 189.4C255.457 188.785 257.239 187.958 258.868 186.945C260.497 185.933 261.975 184.72 263.144 183.319C263.745 182.627 264.214 181.867 264.635 181.102C264.99 180.321 265.325 179.527 265.429 178.731C265.534 178.332 265.501 177.946 265.541 177.555C265.49 177.181 265.513 176.788 265.395 176.436C265.341 176.064 265.177 175.733 265.052 175.388C264.977 175.22 264.865 175.07 264.779 174.907L264.643 174.664L264.463 174.446C264.039 173.827 263.381 173.346 262.711 172.884C261.983 172.476 261.202 172.102 260.329 171.863C258.601 171.35 256.682 171.18 254.74 171.204H254.733C253.512 171.221 252.507 170.242 252.492 169.021C252.49 168.878 252.505 168.727 252.528 168.591C252.679 167.766 252.765 166.951 252.729 166.249C252.718 165.892 252.655 165.593 252.593 165.325C252.507 165.093 252.426 164.892 252.335 164.791C252.243 164.689 252.164 164.626 252.033 164.556C251.888 164.5 251.676 164.449 251.41 164.427C250.853 164.404 250.115 164.535 249.368 164.781C247.856 165.285 246.294 166.152 244.829 167.17C243.352 168.18 241.95 169.361 240.607 170.608L240.598 170.618C240.29 170.904 239.912 171.086 239.529 171.163L213.321 176.354L200.294 178.948C196.419 179.856 192.822 182.016 190.526 185.169C189.351 186.72 188.53 188.451 188.205 190.267C187.872 192.081 188.03 193.977 188.6 195.814C189.75 199.51 192.422 202.85 195.574 205.522C198.749 208.201 202.475 210.309 206.409 211.635C210.328 212.926 214.562 213.437 218.273 212.428L218.286 212.425C219.458 212.107 220.667 212.798 220.986 213.972C221.008 214.051 221.027 214.144 221.039 214.224L226.483 250.659C226.621 251.581 226.159 252.458 225.398 252.895C222.151 254.751 218.928 256.625 215.799 258.593C212.674 260.566 209.639 262.635 206.887 264.948C204.122 267.247 201.708 269.848 199.956 272.796C199.846 272.98 199.724 273.158 199.622 273.346L199.336 273.918L198.763 275.063L198.292 276.252L198.056 276.846L197.875 277.461C197.319 279.087 197.042 280.768 196.904 282.471C196.667 285.88 197.218 289.356 198.427 292.596C198.726 293.376 199.099 294.252 199.463 295.12L200.552 297.717L202.73 302.908L211.441 323.675C211.858 324.669 211.488 325.797 210.618 326.367C208.493 327.766 206.778 329.913 205.649 332.331C204.522 334.742 203.943 337.477 204.2 339.978C204.324 341.221 204.676 342.39 205.272 343.295C205.866 344.203 206.643 344.892 207.66 345.275C208.669 345.667 209.881 345.788 211.15 345.702C212.428 345.595 213.749 345.27 215.065 344.87L214.793 344.98L238.39 333.61L238.016 333.838C238.556 333.373 239.094 332.912 239.428 332.341C239.645 332.083 239.741 331.761 239.909 331.475C239.97 331.321 240.013 331.155 240.071 330.998C240.128 330.84 240.187 330.682 240.207 330.505C240.505 329.153 240.387 327.566 239.982 325.964C239.579 324.357 238.921 322.739 238.159 321.151C237.402 319.558 236.469 318.011 235.528 316.472L235.51 316.441C235.433 316.314 235.367 316.172 235.317 316.038L227.125 293.174C226.716 292.03 227.31 290.77 228.455 290.361C228.617 290.303 228.792 290.264 228.955 290.244L260.459 286.76C260.541 286.751 260.636 286.747 260.716 286.747L285.883 286.931C286.523 286.934 287.102 287.218 287.501 287.656L311.343 314.066C311.799 314.571 311.976 315.239 311.887 315.863L308.041 341.756L307.08 348.229L306.959 349.039C306.922 349.295 306.87 349.625 306.861 349.751C306.825 350.092 306.838 350.437 306.896 350.774C307.014 351.449 307.319 352.088 307.774 352.588C307.888 352.713 308.01 352.829 308.138 352.939L308.35 353.104L308.667 353.325L309.938 354.206L311.25 355.028C311.687 355.301 312.148 355.538 312.595 355.796C314.411 356.783 316.295 357.658 318.249 358.377C320.205 359.091 322.207 359.693 324.248 360.174C326.295 360.633 328.364 361.016 330.461 361.271C332.558 361.519 334.668 361.708 336.792 361.77C337.852 361.826 338.917 361.818 339.981 361.833C340.022 361.832 340.073 361.833 340.123 361.835C340.212 361.836 340.302 361.837 340.347 361.832C340.431 361.826 340.517 361.829 340.601 361.82C340.768 361.804 340.934 361.775 341.099 361.74C341.428 361.662 341.747 361.537 342.046 361.368C342.642 361.033 343.148 360.525 343.485 359.922C343.529 359.848 343.57 359.772 343.604 359.691C343.64 359.615 343.679 359.542 343.723 359.416L343.98 358.742C344.175 358.294 344.264 357.84 344.409 357.39C344.883 355.586 344.876 353.822 344.314 352.248C343.722 350.682 342.615 349.243 341.102 348.065C339.61 346.873 337.836 345.897 335.967 345.066L335.957 345.06C335.014 344.64 334.513 343.637 334.685 342.665L334.687 342.657L338.425 321.643L340.294 311.137L340.76 308.51L340.995 307.196C341.074 306.756 341.153 306.315 341.21 305.92C341.47 304.291 341.585 302.64 341.555 300.992C341.502 297.693 340.851 294.408 339.649 291.336C339.35 290.568 339.022 289.809 338.651 289.074L338.376 288.519L338.067 287.928L337.449 286.745L334.979 282.016L325.097 263.099L323.86 260.728C323.415 259.866 323.016 258.982 322.665 258.079C321.962 256.274 321.463 254.39 321.163 252.476C321.09 252.004 321.03 251.501 320.98 251.051L320.83 249.733L320.531 247.098C320.341 245.339 320.091 243.589 319.874 241.836C318.942 234.829 317.808 227.853 316.374 220.948C314.959 214.034 312.954 207.28 311.048 200.524C309.167 193.745 306.957 187.099 304.715 180.331L304.71 180.317C304.582 179.93 304.792 179.512 305.179 179.383C305.505 179.276 305.853 179.408 306.032 179.685Z" fill="#232323"/>
<path d="M307.613 314.869L312.77 303.579C312.94 303.208 313.379 303.044 313.749 303.214C314.066 303.359 314.231 303.7 314.167 304.026L311.805 316.212C311.572 317.414 310.409 318.198 309.208 317.965C308.006 317.732 307.221 316.569 307.454 315.368C307.486 315.197 307.545 315.022 307.613 314.869Z" fill="#232323"/>
<path d="M336.328 345.187C334.541 344.507 332.403 344.202 330.24 344.107C328.069 344.01 325.84 344.12 323.611 344.32H323.605C323.198 344.356 322.841 344.056 322.803 343.65C322.772 343.299 322.994 342.983 323.317 342.881C325.497 342.195 327.722 341.585 330.04 341.181C332.359 340.786 334.774 340.551 337.376 340.913L337.422 340.919C338.636 341.087 339.482 342.208 339.313 343.421C339.145 344.633 338.025 345.48 336.812 345.312C336.647 345.288 336.477 345.243 336.328 345.187Z" fill="#232323"/>
<path d="M301.779 212.662L316.704 210.462C318.397 210.213 320.006 211.273 320.448 212.925L322.271 219.763C322.734 221.498 321.752 223.292 320.041 223.837L304.987 228.636L301.779 212.662Z" fill="white"/>
<path d="M306.661 225.794L305.839 221.702L317.471 217.994C318.191 217.766 318.781 217.318 319.189 216.746L320.145 220.33C320.304 220.931 319.966 221.551 319.372 221.742L306.661 225.794Z" fill="#BDBDBD"/>
<path d="M307.102 234.896C307.546 233.368 307.682 231.76 307.494 230.147L317.543 226.943C317.81 228.402 318.064 229.862 318.307 231.324L307.102 234.896Z" fill="#BDBDBD"/>
<path d="M318.307 231.324C318.064 229.862 317.81 228.402 317.543 226.943L319.327 226.375C319.575 227.878 319.844 229.447 320.097 230.751C320.075 230.759 320.06 230.766 320.038 230.773L318.307 231.324Z" fill="#232323"/>
<path d="M241.286 222.069L220.405 228.104C219.356 228.407 218.705 229.452 218.895 230.527L220.637 240.347C220.84 241.498 221.933 242.271 223.088 242.079L243.974 238.618L241.286 222.069Z" fill="white"/>
<path d="M222.793 239.899L221.995 235.402L240.718 232.3L241.45 236.805L222.793 239.899Z" fill="#BDBDBD"/>
<path d="M226.272 249.254L225.475 243.916L242.172 241.147C242.578 243.027 243.41 244.754 244.602 246.214L226.272 249.254Z" fill="#BDBDBD"/>
<path d="M223.848 249.627C223.684 249.627 223.522 249.607 223.367 249.571L221.53 244.135C221.919 244.249 222.327 244.309 222.744 244.309C222.977 244.309 223.211 244.29 223.448 244.251L225.475 243.916L226.273 249.254L224.199 249.597C224.081 249.616 223.964 249.627 223.848 249.627Z" fill="#232323"/>
<path d="M304.987 230.838C304.054 230.838 303.189 230.241 302.89 229.306C302.521 228.147 303.161 226.91 304.318 226.541L319.371 221.742C319.966 221.551 320.304 220.931 320.145 220.33L318.321 213.492C318.168 212.92 317.606 212.556 317.025 212.639L302.1 214.841C300.894 215.021 299.779 214.185 299.602 212.983C299.425 211.78 300.256 210.663 301.458 210.485L316.383 208.285C319.182 207.873 321.844 209.624 322.574 212.358L324.397 219.196C325.164 222.07 323.544 225.03 320.709 225.933L305.656 230.734C305.433 230.805 305.208 230.838 304.987 230.838Z" fill="#232323"/>
<path d="M291.578 204.238C291.137 204.238 290.69 204.276 290.238 204.354L249.492 211.384C245.354 212.098 242.538 216.05 243.211 220.194L246.399 239.819C246.73 241.857 247.838 243.64 249.517 244.841C251.196 246.04 253.242 246.514 255.278 246.165L296.77 239.109C298.838 238.758 300.63 237.612 301.818 235.883C303.005 234.155 303.433 232.071 303.019 230.015L299.084 210.417C298.347 206.752 295.183 204.238 291.578 204.238ZM253.961 250.68C251.462 250.68 249.032 249.904 246.956 248.421C244.316 246.533 242.575 243.729 242.055 240.526L238.865 220.9C237.807 214.385 242.237 208.169 248.743 207.046L289.489 200.017C295.99 198.895 302.1 203.082 303.399 209.55L307.334 229.148C307.983 232.381 307.312 235.659 305.445 238.376C303.578 241.094 300.76 242.894 297.508 243.448L256.016 250.505C255.33 250.621 254.642 250.68 253.961 250.68Z" fill="#232323"/>
<path d="M253.969 246.277C252.381 246.277 250.836 245.783 249.517 244.84C247.838 243.64 246.73 241.857 246.399 239.818L245.279 232.926C247.031 234.426 249.296 235.308 251.706 235.308C252.254 235.308 252.81 235.261 253.369 235.167L277.58 231.05L279.704 242.011L255.278 246.165C254.84 246.24 254.404 246.277 253.969 246.277ZM283.321 241.396L281.197 230.435L294.861 228.11C297.837 227.601 300.268 225.823 301.697 223.434L302.824 229.04C302.827 229.058 302.83 229.076 302.834 229.095L303.019 230.015C303.433 232.07 303.005 234.155 301.818 235.883C300.63 237.612 298.838 238.758 296.77 239.109L283.321 241.396Z" fill="#BDBDBD"/>
<path d="M279.705 242.011L277.581 231.05L281.198 230.435L283.322 241.396L279.705 242.011Z" fill="#232323"/>
<path d="M302.835 229.094C302.831 229.076 302.827 229.058 302.824 229.04L302.835 229.094Z" fill="#232323"/>
<path d="M253.984 248.477C253.017 248.477 252.073 248.334 251.177 248.068C251.176 248.068 251.173 248.066 251.172 248.066C251.166 248.064 251.16 248.062 251.155 248.061C251.153 248.06 251.149 248.059 251.146 248.059C251.144 248.057 251.141 248.057 251.138 248.056C248.661 247.307 246.545 245.603 245.299 243.303L245.302 243.315C244.877 242.535 244.553 241.688 244.349 240.786C245.54 240.581 246.343 239.452 246.146 238.258C245.967 237.182 245.039 236.415 243.982 236.415C243.863 236.415 243.744 236.426 243.622 236.445L242.343 228.579C242.924 230.307 243.956 231.793 245.28 232.926L246.4 239.818C246.73 241.857 247.839 243.64 249.517 244.84C250.837 245.783 252.382 246.277 253.969 246.277C254.404 246.277 254.841 246.24 255.279 246.165L279.705 242.011L283.322 241.396L296.77 239.109C298.838 238.758 300.631 237.612 301.818 235.883C303.006 234.155 303.433 232.07 303.02 230.015L302.835 229.095L302.824 229.04L301.698 223.434C302.475 222.135 302.957 220.656 303.071 219.102L304.766 227.542C304.766 227.543 304.766 227.544 304.764 227.546L305.176 229.585C305.31 230.247 305.373 230.906 305.372 231.555C305.368 236.269 301.972 240.459 297.143 241.278L255.65 248.336C255.091 248.43 254.534 248.477 253.984 248.477Z" fill="#232323"/>
<path d="M255.78 256.069C251.017 256.069 246.815 252.625 246.025 247.763L246.011 247.673C246.311 247.935 246.627 248.185 246.956 248.421C249.032 249.904 251.461 250.68 253.961 250.68C254.642 250.68 255.33 250.621 256.016 250.505L297.508 243.448C300.759 242.894 303.577 241.094 305.445 238.376C305.968 237.614 306.398 236.809 306.731 235.974L306.973 237.178C308.072 242.643 304.435 247.939 298.94 248.87L257.447 255.928C256.887 256.023 256.329 256.069 255.78 256.069Z" fill="#BDBDBD"/>
<path d="M253.961 250.68C251.462 250.68 249.033 249.904 246.957 248.421C246.628 248.186 246.312 247.936 246.011 247.673L245.302 243.315C246.55 245.608 248.664 247.309 251.138 248.056C251.141 248.057 251.144 248.057 251.146 248.059C251.149 248.059 251.151 248.06 251.155 248.061C251.16 248.063 251.166 248.064 251.172 248.066C251.173 248.066 251.176 248.068 251.177 248.068C252.073 248.334 253.017 248.477 253.983 248.477C254.534 248.477 255.091 248.43 255.65 248.336L297.143 241.278C301.972 240.46 305.368 236.269 305.372 231.555C305.373 230.906 305.309 230.247 305.176 229.585L304.766 227.542C304.816 227.265 304.846 226.98 304.868 226.695L306.731 235.974C306.399 236.809 305.969 237.614 305.445 238.376C303.578 241.094 300.76 242.894 297.508 243.448L256.017 250.505C255.33 250.621 254.643 250.68 253.961 250.68Z" fill="#232323"/>
<path d="M251.155 248.061C251.151 248.06 251.148 248.059 251.146 248.059C251.148 248.059 251.152 248.06 251.155 248.061ZM251.138 248.056C248.663 247.309 246.55 245.608 245.301 243.315L245.299 243.303C246.545 245.603 248.661 247.307 251.138 248.056ZM305.176 229.585L304.764 227.546C304.765 227.544 304.765 227.543 304.765 227.542L305.176 229.585Z" fill="#232323"/>
<path d="M222.744 244.31C220.681 244.31 218.841 242.822 218.471 240.73L216.729 230.912C216.34 228.723 217.657 226.607 219.794 225.989L240.675 219.955C241.843 219.62 243.063 220.29 243.401 221.458C243.737 222.626 243.064 223.846 241.897 224.184L221.074 230.201L222.793 239.899L243.614 236.446C244.816 236.244 245.947 237.059 246.146 238.258C246.344 239.456 245.534 240.59 244.334 240.788L223.449 244.251C223.212 244.29 222.977 244.31 222.744 244.31Z" fill="#232323"/>
<path d="M339.386 359.549C327.267 359.549 310.926 353.176 304.015 347.187C303.249 346.524 303.167 345.366 303.83 344.601C304.493 343.834 305.652 343.751 306.416 344.416C314.217 351.174 336.359 358.723 346.158 354.824C347.099 354.448 348.165 354.909 348.539 355.851C348.915 356.791 348.455 357.858 347.514 358.232C345.217 359.146 342.435 359.549 339.386 359.549Z" fill="#232323"/>
<path d="M340.014 327.107C339.571 327.107 339.125 326.947 338.773 326.624C327.431 316.209 309.712 322.723 309.535 322.79C308.587 323.149 307.529 322.671 307.171 321.722C306.814 320.774 307.293 319.716 308.24 319.359C309.051 319.052 328.267 311.997 341.254 323.921C342 324.606 342.049 325.766 341.364 326.512C341.003 326.906 340.51 327.107 340.014 327.107Z" fill="#232323"/>
<path d="M208.633 322.468C209.045 322.354 209.332 322.296 209.666 322.233C209.99 322.169 210.309 322.125 210.627 322.073C211.263 321.986 211.896 321.918 212.527 321.875C213.788 321.789 215.043 321.782 216.288 321.871C217.532 321.955 218.764 322.108 219.971 322.368C221.182 322.601 222.357 322.966 223.507 323.358C223.892 323.488 224.098 323.905 223.967 324.29C223.853 324.625 223.522 324.825 223.184 324.783L223.147 324.779C222.008 324.643 220.876 324.536 219.743 324.557C218.614 324.552 217.49 324.649 216.385 324.804C215.279 324.954 214.191 325.193 213.134 325.493C212.605 325.642 212.087 325.813 211.578 325.994C211.328 326.091 211.074 326.182 210.836 326.287C210.603 326.381 210.331 326.504 210.19 326.585C209.123 327.196 207.763 326.826 207.152 325.758C206.542 324.691 206.911 323.332 207.978 322.722C208.138 322.63 208.305 322.56 208.476 322.512L208.633 322.468Z" fill="#232323"/>
<path d="M202.794 345.158C202.098 345.158 201.433 344.76 201.124 344.085C200.703 343.165 201.109 342.077 202.031 341.656L241.344 323.687C242.266 323.264 243.353 323.671 243.775 324.592C244.196 325.514 243.791 326.602 242.869 327.023L203.555 344.992C203.308 345.105 203.049 345.158 202.794 345.158Z" fill="#232323"/>
<path d="M201.544 307.608C201.155 307.608 200.763 307.484 200.43 307.23C199.626 306.613 199.473 305.462 200.089 304.658C206.782 295.917 221.634 291.294 230.651 295.147C231.582 295.546 232.015 296.624 231.617 297.555C231.219 298.487 230.14 298.917 229.21 298.521C222.495 295.65 209.082 298.947 203.002 306.889C202.641 307.359 202.095 307.608 201.544 307.608Z" fill="#232323"/>
<path d="M227.229 293.416L223.406 282.49C223.271 282.104 223.474 281.682 223.859 281.547C224.184 281.433 224.535 281.56 224.718 281.833L231.165 291.448C231.848 292.465 231.576 293.843 230.558 294.526C229.542 295.208 228.162 294.938 227.48 293.92C227.375 293.762 227.29 293.587 227.229 293.416Z" fill="#232323"/>
<path d="M261.198 290.092L254.536 283.491C254.244 283.202 254.242 282.732 254.53 282.441C254.762 282.206 255.113 282.16 255.393 282.3L263.769 286.519C264.867 287.073 265.31 288.412 264.756 289.512C264.203 290.611 262.862 291.053 261.764 290.5C261.552 290.392 261.359 290.25 261.198 290.092Z" fill="#232323"/>
<path d="M285.991 286.933C287.881 287.279 290.076 287.039 292.237 286.48C294.409 285.919 296.574 285.067 298.698 284.098L298.703 284.096C299.073 283.928 299.51 284.091 299.679 284.461C299.827 284.784 299.721 285.158 299.445 285.361C297.519 286.778 295.502 288.118 293.272 289.225C291.047 290.317 288.57 291.218 285.743 291.328L285.678 291.331C284.454 291.379 283.425 290.425 283.377 289.201C283.329 287.978 284.282 286.947 285.506 286.9C285.668 286.893 285.837 286.906 285.991 286.933Z" fill="#232323"/>
<path d="M312.684 200.414C311.929 200.414 311.194 200.025 310.783 199.327C310.168 198.278 310.52 196.928 311.568 196.314L377.239 157.813C381.938 155.058 385.244 150.594 386.307 145.567C387.172 141.483 386.478 138.024 384.45 136.314C382.321 134.522 378.605 134.547 373.978 136.387C372.986 136.783 371.853 136.408 371.292 135.499C369.62 132.788 367.979 131.301 366.662 131.301C366.642 131.301 366.622 131.303 366.601 131.303C364.927 131.361 362.715 133.777 360.533 137.933C360.317 138.344 359.977 138.675 359.562 138.881L311.076 162.911C309.987 163.451 308.666 163.006 308.127 161.917C307.587 160.827 308.032 159.508 309.122 158.968L356.977 135.25C359.98 129.754 363.083 127.021 366.449 126.904C369.168 126.826 371.662 128.375 374.039 131.682C380.958 129.394 385.04 131.055 387.286 132.95C390.626 135.764 391.838 140.694 390.615 146.479C389.294 152.716 385.23 158.231 379.465 161.611L313.795 200.111C313.446 200.316 313.062 200.414 312.684 200.414Z" fill="#232323"/>
<path d="M348 179.339C347.724 179.339 347.445 179.277 347.18 179.145C329.94 170.517 330.85 150.861 330.898 150.028C330.954 149.017 331.806 148.246 332.833 148.302C333.843 148.359 334.616 149.224 334.559 150.234C334.52 150.987 333.775 168.334 348.822 175.865C349.729 176.318 350.095 177.42 349.642 178.327C349.32 178.969 348.672 179.339 348 179.339Z" fill="#232323"/>
<path d="M218.86 202.954C218.575 202.954 218.285 202.886 218.015 202.745C209.591 198.358 205.172 185 208.56 174.161C208.862 173.193 209.893 172.655 210.857 172.958C211.823 173.259 212.362 174.287 212.06 175.255C208.945 185.224 213.529 196.274 219.71 199.492C220.607 199.961 220.957 201.068 220.488 201.966C220.162 202.594 219.522 202.954 218.86 202.954Z" fill="#232323"/>
<path d="M216.679 214.833L217.099 206.696C217.119 206.284 217.47 205.968 217.882 205.989C218.199 206.006 218.461 206.221 218.553 206.507L221.045 214.264C221.421 215.44 220.774 216.7 219.598 217.078C218.421 217.456 217.161 216.809 216.784 215.632C216.699 215.369 216.667 215.093 216.679 214.833Z" fill="#232323"/>
<path d="M215.675 258.267C214.621 258.267 213.689 257.507 213.507 256.431L206.529 214.913C206.328 213.715 207.136 212.579 208.335 212.379C209.528 212.178 210.669 212.985 210.869 214.184L217.848 255.702C218.05 256.9 217.242 258.035 216.043 258.236C215.92 258.257 215.797 258.267 215.675 258.267Z" fill="#232323"/>
<path d="M327.597 265.33C326.978 265.33 326.363 265.071 325.928 264.565C325.136 263.644 325.239 262.254 326.161 261.461L328.365 259.563C330.031 258.131 330.926 256.055 330.821 253.868C329.948 235.641 326.396 215.199 320.264 193.112C319.939 191.941 320.625 190.729 321.796 190.403C322.965 190.079 324.18 190.764 324.505 191.935C330.812 214.653 334.316 234.842 335.216 253.657C335.387 257.208 333.936 260.576 331.238 262.899L329.032 264.798C328.617 265.155 328.106 265.33 327.597 265.33Z" fill="#232323"/>
<path d="M189.246 185.4C188.796 185.4 188.34 185.261 187.948 184.974C164.508 167.801 175.19 149.193 175.302 149.007C175.923 147.963 177.275 147.622 178.318 148.241C179.362 148.861 179.705 150.208 179.088 151.251C178.709 151.905 170.453 166.7 190.549 181.423C191.53 182.142 191.742 183.52 191.023 184.499C190.593 185.088 189.925 185.4 189.246 185.4Z" fill="#232323"/>
<path d="M331.411 110.378C335.245 122.869 332.958 134.831 323.64 137.691C314.324 140.55 305.901 131.916 302.068 119.426C298.233 106.935 300.44 95.3158 309.758 92.4564C319.074 89.597 327.578 97.8863 331.411 110.378Z" fill="white"/>
<path d="M310.667 134.198C307.733 131.521 305.226 127.666 303.37 123.097C305.227 127.666 307.734 131.521 310.667 134.198Z" fill="#0C0C0C"/>
<path d="M312.074 135.364C311.595 135.005 311.126 134.617 310.668 134.198C311.126 134.615 311.595 135.005 312.074 135.364Z" fill="#232323"/>
<path d="M330.711 108.284C328.957 103.452 326.48 99.3679 323.532 96.4839C323.532 96.4813 323.531 96.4774 323.53 96.4735C326.481 99.3601 328.958 103.447 330.711 108.284Z" fill="#1298BD"/>
<path d="M320.057 138.237C317.235 138.237 314.546 137.21 312.107 135.39C312.105 135.388 312.104 135.387 312.103 135.386C312.099 135.383 312.095 135.379 312.09 135.377C312.085 135.373 312.079 135.369 312.074 135.365C312.074 135.365 312.074 135.365 312.074 135.364C311.595 135.005 311.126 134.615 310.668 134.198C307.735 131.521 305.228 127.666 303.371 123.097C303.368 123.091 303.365 123.085 303.363 123.078C303.363 123.077 303.363 123.078 303.363 123.077C302.939 122.033 302.55 120.952 302.197 119.839C305.149 122.769 308.571 124.482 312.217 124.482C313.39 124.482 314.587 124.304 315.797 123.933C325.115 121.079 327.403 109.114 323.574 96.6199C323.561 96.572 323.547 96.5318 323.532 96.4839C326.48 99.3679 328.957 103.452 330.711 108.284C330.958 108.966 331.191 109.664 331.409 110.375C335.246 122.868 332.956 134.834 323.64 137.687C322.428 138.06 321.23 138.237 320.057 138.237Z" fill="#BDBDBD"/>
<path d="M313.422 94.0973C312.464 94.0973 311.457 94.2371 310.402 94.5609C306.688 95.7005 304.236 98.4977 303.113 102.876C301.991 107.251 302.367 112.899 304.171 118.78C305.984 124.684 308.859 129.619 312.267 132.677C314.618 134.785 318.386 137.005 322.995 135.586C327.621 134.167 329.535 130.188 330.325 127.1C331.475 122.614 331.112 116.905 329.307 111.024V111.023C327.512 105.173 324.632 100.307 321.196 97.3218C319.374 95.7367 316.696 94.0973 313.422 94.0973ZM320.097 140.432C316.337 140.432 312.622 138.907 309.328 135.953C305.333 132.37 302.007 126.73 299.963 120.071C297.924 113.426 297.529 106.932 298.85 101.782C300.336 95.9867 303.981 91.9269 309.113 90.3521C314.247 88.7774 319.565 90.0724 324.084 93.9989C328.131 97.5174 331.481 103.105 333.516 109.733V109.732C335.555 116.376 335.936 122.933 334.589 128.192C333.077 134.1 329.417 138.219 324.286 139.795C322.897 140.221 321.493 140.432 320.097 140.432Z" fill="#232323"/>
<path d="M315.933 94.6878C315.724 94.6878 315.53 94.7111 315.355 94.7564C313.974 95.119 312.921 95.9776 312.139 97.3827C310.136 100.972 310.281 107.725 312.514 115.001C314.103 120.177 316.407 124.572 319.002 127.376C320.727 129.24 323.401 131.269 326.363 130.362C329.336 129.449 330.437 126.244 330.837 123.717C331.44 119.905 330.9 114.965 329.318 109.808C326.43 100.399 319.24 94.6878 315.933 94.6878ZM324.888 134.254C321.952 134.254 318.98 132.752 316.311 129.868C313.348 126.668 310.754 121.77 309.008 116.079C306.415 107.63 306.389 100.164 308.935 95.5969C310.193 93.3371 312.092 91.8193 314.425 91.2094C319.894 89.7823 329.31 97.2791 332.824 108.732C334.568 114.412 335.148 119.938 334.459 124.29C333.663 129.321 331.17 132.723 327.439 133.868C326.597 134.127 325.744 134.254 324.888 134.254Z" fill="#232323"/>
<path d="M328.263 259.651L327.767 258.701C327.396 257.981 327.061 257.243 326.769 256.488C326.18 254.979 325.764 253.403 325.513 251.804C325.452 251.396 325.404 251.018 325.356 250.582L325.204 249.25L324.903 246.584C324.781 245.47 324.637 244.359 324.492 243.248C326.272 243.092 328.048 242.429 329.829 241.26C330.294 245.57 330.624 249.776 330.821 253.868C330.926 256.055 330.031 258.131 328.366 259.563L328.263 259.651Z" fill="#BDBDBD"/>
<path d="M326.815 260.898C325.476 258.275 325.019 255.568 325.019 255.568L321.814 243.097C322.434 243.222 323.056 243.284 323.676 243.284C323.948 243.284 324.22 243.271 324.492 243.248C324.637 244.359 324.781 245.47 324.903 246.584L325.204 249.25L325.356 250.582C325.404 251.018 325.452 251.396 325.512 251.804C325.764 253.403 326.179 254.979 326.769 256.488C327.061 257.243 327.395 257.981 327.767 258.701L328.263 259.651L326.815 260.898Z" fill="#232323"/>
<path d="M327.984 262.794C327.535 262.196 327.148 261.55 326.815 260.898L328.263 259.651L328.366 259.563C330.031 258.131 330.926 256.055 330.821 253.868C330.624 249.776 330.294 245.569 329.829 241.26C330.541 240.792 331.253 240.243 331.967 239.612C332.451 244.396 332.796 249.113 333.016 253.764C333.154 256.617 331.967 259.369 329.803 261.232L327.984 262.794Z" fill="#232323"/>
<path d="M217.313 252.507L215.771 243.343L219.223 242.504C219.684 243.141 220.312 243.643 221.03 243.953L221.907 249.822C220.373 250.704 218.839 251.596 217.313 252.507Z" fill="#BDBDBD"/>
<path d="M217.42 253.152L217.312 252.507C218.839 251.597 220.373 250.704 221.907 249.822L221.03 243.953C221.04 243.957 221.05 243.961 221.059 243.965L221.749 247.866C221.903 248.733 222.561 249.383 223.367 249.571L223.918 251.204L217.42 253.152Z" fill="#232323"/>
<path d="M223.367 249.571C222.562 249.383 221.904 248.733 221.75 247.866L221.06 243.965C221.212 244.031 221.37 244.087 221.531 244.135L223.367 249.571Z" fill="#232323"/>
<path d="M221.53 244.135C221.37 244.087 221.212 244.031 221.059 243.965C221.05 243.961 221.04 243.957 221.03 243.953C220.312 243.643 219.684 243.141 219.223 242.504L220.847 242.109L221.53 244.135Z" fill="#232323"/>
<path d="M215.678 253.674L213.627 243.865L215.771 243.343L217.313 252.507L217.42 253.152L215.678 253.674Z" fill="#232323"/>
<path d="M206.669 202.414C200.618 200.663 198.511 193.639 198.511 193.639L209.025 191.365C210.236 194.804 212.088 197.869 214.443 200.143C214.347 200.171 214.25 200.198 214.153 200.225C211.671 200.944 209.172 201.639 206.669 202.414Z" fill="#BDBDBD"/>
<path d="M209.5 202.805C208.473 202.805 207.531 202.662 206.669 202.414C209.172 201.639 211.67 200.944 214.153 200.225C214.25 200.198 214.347 200.171 214.443 200.143C214.958 200.641 215.498 201.1 216.06 201.517C214.69 201.902 213.387 202.237 212.192 202.5C211.236 202.71 210.339 202.805 209.5 202.805Z" fill="#232323"/>
<path d="M218.725 198.906C216.207 197.208 214.029 194.214 212.645 190.581L240.905 184.469C256.686 183.591 257.112 174.78 256.638 171.248C257.922 171.328 259.169 171.519 260.329 171.863C261.202 172.102 261.983 172.476 262.711 172.884C263.381 173.346 264.039 173.827 264.463 174.446L264.643 174.664L264.779 174.907C264.865 175.07 264.977 175.22 265.052 175.388C265.178 175.733 265.341 176.064 265.395 176.436C265.513 176.788 265.49 177.181 265.541 177.555C265.501 177.946 265.534 178.332 265.429 178.731C265.325 179.527 264.99 180.321 264.635 181.102C264.214 181.867 263.745 182.627 263.144 183.319C261.975 184.72 260.497 185.934 258.868 186.945C257.239 187.958 255.457 188.785 253.583 189.4C251.717 190.028 249.78 190.511 247.797 190.798C245.824 191.134 243.804 191.242 241.786 191.317L241.754 191.318L241.682 191.321C241.41 191.334 241.136 191.398 240.873 191.518C238.046 192.813 235.15 193.97 232.207 195.006C229.27 196.064 226.236 196.839 223.216 197.645C221.716 198.046 220.222 198.472 218.725 198.906Z" fill="#BDBDBD"/>
<path d="M220.447 200.197C220.279 199.906 220.029 199.659 219.71 199.492C219.376 199.319 219.048 199.123 218.725 198.905C220.222 198.472 221.716 198.046 223.216 197.645C226.236 196.839 229.27 196.064 232.207 195.006C235.15 193.97 238.046 192.812 240.873 191.517C241.136 191.398 241.41 191.334 241.682 191.321L241.754 191.318L241.786 191.317C243.804 191.242 245.824 191.134 247.797 190.797C249.78 190.511 251.717 190.028 253.583 189.4C255.457 188.785 257.239 187.958 258.868 186.945C260.497 185.933 261.975 184.72 263.144 183.319C263.745 182.627 264.214 181.867 264.635 181.102C264.99 180.321 265.325 179.527 265.429 178.731C265.534 178.332 265.501 177.946 265.541 177.555C265.49 177.181 265.513 176.788 265.395 176.436C265.341 176.064 265.178 175.733 265.052 175.388C264.977 175.22 264.865 175.07 264.779 174.906L264.643 174.664L264.463 174.445C264.039 173.826 263.381 173.346 262.711 172.884C261.983 172.476 261.202 172.102 260.329 171.863C259.169 171.519 257.922 171.328 256.638 171.248C256.518 170.352 256.34 169.796 256.34 169.796L261.981 170.083C273.8 174.624 267.248 191.951 244.118 193.419C243.165 193.228 242.534 193.081 242.343 193.03C242.304 193.018 242.252 193.013 242.19 193.013C240.424 193.013 229.843 197.208 220.447 200.197Z" fill="#232323"/>
<path d="M216.06 201.518C215.498 201.101 214.958 200.641 214.443 200.144C212.087 197.87 210.235 194.804 209.024 191.365L212.644 190.581C214.028 194.214 216.206 197.208 218.724 198.906C219.048 199.123 219.375 199.319 219.709 199.492C220.028 199.659 220.278 199.907 220.446 200.197C218.94 200.676 217.465 201.123 216.06 201.518Z" fill="#232323"/>
<path d="M210.383 345.728C209.395 345.728 208.464 345.588 207.66 345.276C206.913 344.995 206.296 344.548 205.786 343.972L240.348 328.175C240.407 328.996 240.367 329.783 240.207 330.505C240.187 330.682 240.128 330.84 240.071 330.998C240.013 331.155 239.97 331.321 239.909 331.475C239.741 331.761 239.645 332.083 239.428 332.341C239.119 332.868 238.639 333.299 238.143 333.728L214.944 344.907C213.67 345.29 212.389 345.599 211.15 345.702C210.892 345.718 210.636 345.728 210.383 345.728Z" fill="#BDBDBD"/>
<path d="M210.325 347.933C207.239 347.933 205.067 346.762 203.706 344.922L205.786 343.971C206.296 344.548 206.912 344.995 207.66 345.276C208.464 345.588 209.395 345.727 210.383 345.727C210.636 345.727 210.892 345.718 211.15 345.702C212.389 345.599 213.67 345.29 214.944 344.906L238.143 333.728C238.639 333.299 239.119 332.868 239.427 332.341C239.645 332.083 239.741 331.761 239.909 331.475C239.97 331.321 240.013 331.155 240.071 330.998C240.128 330.84 240.186 330.682 240.207 330.505C240.366 329.783 240.406 328.996 240.348 328.175L242.471 327.205C242.969 330.878 241.898 333.657 239.342 335.589L215.75 346.96C213.697 347.63 211.892 347.933 210.325 347.933Z" fill="#232323"/>
<path d="M204.286 340.624C204.25 340.411 204.221 340.195 204.199 339.978C204.18 339.791 204.166 339.603 204.155 339.414C204.593 339.672 205.041 339.89 205.497 340.071L204.286 340.624Z" fill="#BDBDBD"/>
<path d="M202.223 341.567C202.019 340.656 201.921 339.686 201.929 338.685C202.428 338.517 202.794 338.465 202.794 338.465C203.236 338.826 203.69 339.142 204.155 339.414C204.166 339.603 204.18 339.791 204.199 339.978C204.221 340.195 204.25 340.412 204.286 340.624L202.223 341.567Z" fill="#232323"/>
<path d="M224.497 331.386C227.592 327.007 229.076 321.898 227.363 317.925C227.363 317.925 222.926 308.007 218.68 297.968C220.308 297.657 221.908 297.499 223.417 297.499C225.515 297.499 227.436 297.806 229.011 298.438L235.317 316.038C235.366 316.172 235.432 316.314 235.51 316.441L235.528 316.472C236.468 318.01 237.401 319.558 238.158 321.151C238.69 322.259 239.17 323.382 239.55 324.506L224.497 331.386Z" fill="#BDBDBD"/>
<path d="M239.55 324.506C239.171 323.382 238.691 322.26 238.158 321.151C237.402 319.558 236.468 318.011 235.528 316.472L235.51 316.441C235.432 316.314 235.366 316.172 235.317 316.038L229.012 298.438C229.078 298.465 229.144 298.492 229.21 298.521C229.444 298.621 229.688 298.668 229.929 298.668C230.418 298.668 230.891 298.472 231.237 298.122L237.392 315.299C239.337 318.38 240.726 321.143 241.576 323.599C241.498 323.622 241.42 323.652 241.344 323.687L239.55 324.506ZM230.089 294.921C230.013 294.892 229.938 294.864 229.861 294.837C229.921 294.821 229.98 294.804 230.04 294.783L230.089 294.921Z" fill="#232323"/>
<path d="M217.208 294.462C216.923 293.779 216.642 293.103 216.366 292.432C211.612 280.878 217.826 279.484 217.826 279.484L253.039 274.951C253.039 274.951 271.195 278.678 282.625 279.411C283.379 279.459 284.118 279.482 284.838 279.482C295.047 279.482 301.779 274.951 301.779 274.951C301.779 274.951 303.168 279.751 298.942 284.032C298.862 284.04 298.781 284.061 298.704 284.096L298.699 284.099C296.575 285.067 294.41 285.919 292.238 286.48C290.764 286.862 289.275 287.095 287.879 287.095C287.379 287.095 286.892 287.065 286.422 287.002C286.285 286.966 286.141 286.942 285.995 286.935C285.993 286.933 285.993 286.933 285.992 286.933C285.864 286.911 285.723 286.897 285.585 286.897C285.559 286.897 285.532 286.898 285.506 286.9C285.416 286.902 285.325 286.911 285.238 286.926L264.163 286.771C264.043 286.676 263.912 286.591 263.77 286.519L255.394 282.3C255.289 282.247 255.174 282.221 255.06 282.221C254.868 282.221 254.676 282.295 254.531 282.441C254.243 282.732 254.245 283.202 254.536 283.491L258.099 287.021L230.262 290.1L224.718 281.834C224.581 281.629 224.349 281.506 224.104 281.506C224.022 281.506 223.941 281.519 223.859 281.547C223.475 281.682 223.271 282.104 223.406 282.49L227.044 292.889C227.064 292.985 227.092 293.079 227.125 293.174L227.485 294.178C226.142 293.907 224.726 293.777 223.265 293.777C221.296 293.777 219.252 294.013 217.208 294.462Z" fill="#BDBDBD"/>
<path d="M227.731 294.229C227.649 294.211 227.566 294.194 227.485 294.177L227.125 293.174C227.091 293.079 227.064 292.985 227.043 292.889L227.228 293.416C227.289 293.587 227.374 293.762 227.479 293.92C227.554 294.032 227.639 294.135 227.731 294.229ZM231.484 292.179C231.424 291.925 231.319 291.677 231.165 291.448L230.261 290.099L258.098 287.021L260.108 289.013L231.484 292.179ZM283.374 289.113L264.945 288.978C265.122 288.16 264.821 287.3 264.163 286.771L285.238 286.925C284.174 287.096 283.375 288.018 283.374 289.113ZM286.421 287.002C286.278 286.982 286.135 286.959 285.994 286.935C286.14 286.942 286.284 286.966 286.421 287.002Z" fill="#232323"/>
<path d="M203.706 344.922C202.995 343.962 202.507 342.82 202.224 341.567L204.287 340.624L205.497 340.071C206.711 340.554 207.977 340.777 209.265 340.777C214.845 340.777 220.813 336.598 224.498 331.387L239.551 324.506L241.344 323.686C241.421 323.651 241.498 323.622 241.576 323.598C242.022 324.884 242.319 326.086 242.471 327.205L240.348 328.175L205.786 343.971L203.706 344.922Z" fill="#232323"/>
<path d="M229.929 298.668C229.688 298.668 229.444 298.621 229.21 298.521C229.144 298.492 229.078 298.465 229.012 298.438C227.437 297.806 225.515 297.499 223.418 297.499C221.909 297.499 220.308 297.657 218.68 297.968C218.184 296.796 217.691 295.621 217.208 294.462C219.252 294.013 221.296 293.777 223.265 293.777C224.725 293.777 226.142 293.907 227.485 294.177C227.567 294.194 227.65 294.211 227.731 294.229C228.156 294.668 228.736 294.903 229.325 294.903C229.504 294.903 229.684 294.881 229.861 294.837C229.938 294.864 230.013 294.892 230.089 294.921L231.237 298.122C230.891 298.472 230.418 298.668 229.929 298.668Z" fill="#232323"/>
<path d="M229.325 294.903C228.736 294.903 228.156 294.668 227.731 294.229C227.639 294.135 227.555 294.032 227.48 293.92C227.375 293.762 227.29 293.587 227.229 293.416L227.044 292.889L223.406 282.49C223.271 282.104 223.474 281.682 223.859 281.547C223.941 281.519 224.022 281.506 224.104 281.506C224.349 281.506 224.58 281.629 224.718 281.833L230.262 290.099L231.165 291.448C231.32 291.677 231.424 291.925 231.484 292.179L229.197 292.432L230.04 294.783C229.981 294.804 229.921 294.821 229.861 294.837C229.684 294.881 229.504 294.903 229.325 294.903Z" fill="#232323"/>
<path d="M260.108 289.013L258.098 287.021L254.536 283.491C254.244 283.202 254.242 282.732 254.53 282.441C254.675 282.294 254.867 282.221 255.059 282.221C255.173 282.221 255.288 282.247 255.393 282.3L263.769 286.519C263.911 286.591 264.042 286.675 264.163 286.771C264.82 287.3 265.122 288.16 264.945 288.978L260.697 288.947L260.108 289.013Z" fill="#232323"/>
<path d="M287.555 291.002L285.868 289.131L283.375 289.113C283.376 288.018 284.175 287.096 285.239 286.925C285.325 286.911 285.416 286.902 285.507 286.899C285.532 286.898 285.56 286.897 285.586 286.897C285.723 286.897 285.864 286.911 285.992 286.933C285.994 286.933 285.994 286.933 285.995 286.934C286.136 286.959 286.278 286.982 286.422 287.002C286.892 287.065 287.379 287.095 287.879 287.095C289.275 287.095 290.764 286.862 292.238 286.48C294.41 285.919 296.575 285.067 298.699 284.098L298.704 284.096C298.782 284.061 298.862 284.04 298.942 284.032C297.796 285.194 296.236 286.318 294.121 287.297C291.853 288.346 289.631 289.637 287.555 291.002Z" fill="#232323"/>
<path d="M340.25 361.836C340.211 361.836 340.167 361.835 340.123 361.835C340.079 361.833 340.036 361.833 339.997 361.833C339.991 361.833 339.985 361.833 339.98 361.833C338.917 361.818 337.851 361.826 336.792 361.77C334.668 361.708 332.557 361.519 330.461 361.271C328.364 361.016 326.295 360.633 324.247 360.174C322.999 359.879 321.766 359.54 320.549 359.158C322.794 358.942 324.443 358.337 325.633 357.481C330.343 358.762 335.125 359.549 339.386 359.549C340.935 359.549 342.414 359.445 343.797 359.223L343.723 359.416C343.679 359.542 343.64 359.615 343.604 359.691C343.57 359.772 343.529 359.848 343.485 359.922C343.148 360.525 342.642 361.033 342.046 361.368C341.747 361.537 341.428 361.662 341.099 361.74C340.933 361.775 340.768 361.804 340.601 361.82C340.516 361.829 340.431 361.826 340.347 361.832C340.325 361.835 340.29 361.836 340.25 361.836Z" fill="#BDBDBD"/>
<path d="M339.971 364.039C329.911 364.039 321.169 362.38 313.846 358.918C314.412 358.955 314.968 359.006 315.519 359.065C316.646 359.186 317.681 359.245 318.631 359.245C319.313 359.245 319.952 359.215 320.549 359.158C321.766 359.54 322.999 359.879 324.247 360.175C326.295 360.633 328.364 361.016 330.461 361.271C332.557 361.519 334.668 361.708 336.792 361.77C337.851 361.826 338.917 361.818 339.98 361.833C339.985 361.833 339.99 361.833 339.997 361.833C340.036 361.833 340.079 361.833 340.123 361.835C340.167 361.835 340.211 361.836 340.249 361.836C340.29 361.836 340.325 361.835 340.347 361.832C340.431 361.826 340.516 361.83 340.6 361.82C340.767 361.804 340.933 361.775 341.099 361.74C341.428 361.662 341.746 361.537 342.046 361.369C342.641 361.033 343.148 360.525 343.484 359.922C343.528 359.848 343.57 359.772 343.604 359.692C343.64 359.615 343.679 359.543 343.723 359.416L343.796 359.223C344.693 359.079 345.547 358.885 346.354 358.637C346.174 359.22 345.955 359.813 345.699 360.414C344.774 362.578 342.654 364.031 340.3 364.039C340.19 364.039 340.08 364.039 339.971 364.039Z" fill="#232323"/>
<path d="M339.439 355.891C335.946 355.891 331.968 355.282 327.963 354.273C329.105 350.805 327.669 346.402 326.726 344.111C327.346 344.085 327.964 344.071 328.579 344.071C329.136 344.071 329.69 344.083 330.241 344.107C332.232 344.194 334.205 344.46 335.899 345.033C335.918 345.042 335.937 345.051 335.957 345.061L335.967 345.066C337.836 345.897 339.61 346.874 341.102 348.065C342.614 349.243 343.722 350.682 344.313 352.248C344.654 353.202 344.791 354.227 344.741 355.287C343.178 355.702 341.384 355.891 339.439 355.891Z" fill="#BDBDBD"/>
<path d="M344.741 355.287C344.791 354.227 344.654 353.202 344.313 352.248C343.722 350.682 342.614 349.243 341.102 348.065C339.61 346.873 337.836 345.897 335.967 345.066L335.957 345.06C335.937 345.051 335.918 345.042 335.898 345.033C336.043 345.083 336.187 345.134 336.328 345.187C336.477 345.243 336.647 345.288 336.813 345.312C336.916 345.326 337.019 345.334 337.12 345.334C337.957 345.334 338.714 344.858 339.088 344.133C344.377 346.968 346.884 350.489 346.968 354.611C346.969 354.641 346.969 354.669 346.969 354.698C346.925 354.694 346.88 354.693 346.836 354.693C346.609 354.693 346.38 354.735 346.157 354.824C345.709 355.002 345.237 355.156 344.741 355.287Z" fill="#232323"/>
<path d="M326.058 342.075C326.205 339.918 326.833 330.951 327.739 321.236C331.16 321.89 334.625 323.237 337.702 325.704L335.028 340.735C334.927 340.734 334.827 340.733 334.726 340.733C333.106 340.733 331.552 340.923 330.04 341.181C328.684 341.416 327.359 341.723 326.058 342.075Z" fill="#BDBDBD"/>
<path d="M337.236 340.893C336.485 340.795 335.751 340.746 335.028 340.735L337.702 325.704C338.065 325.994 338.423 326.301 338.773 326.624C339.042 326.868 339.361 327.02 339.694 327.078L337.236 340.893Z" fill="#232323"/>
<path d="M338.42 321.67C335.123 319.422 331.568 318.161 328.095 317.533C328.701 311.428 329.404 305.329 330.154 300.7C331.736 290.979 328.429 274.532 326.218 265.244L334.979 282.016L337.449 286.745L338.066 287.928L338.376 288.519L338.65 289.074C339.022 289.809 339.35 290.568 339.649 291.336C340.85 294.408 341.502 297.693 341.555 300.992C341.585 302.64 341.469 304.291 341.209 305.92C341.152 306.315 341.073 306.756 340.994 307.196L340.76 308.51L340.294 311.137L338.425 321.643L338.42 321.67Z" fill="#BDBDBD"/>
<path d="M340.391 323.163C339.746 322.623 339.088 322.126 338.42 321.67L338.425 321.643L340.293 311.137L340.76 308.51L340.994 307.196C341.073 306.756 341.152 306.315 341.209 305.92C341.469 304.291 341.585 302.64 341.555 300.992C341.502 297.693 340.85 294.408 339.649 291.336C339.349 290.568 339.022 289.809 338.65 289.074L338.376 288.519L338.066 287.928L337.448 286.745L334.979 282.016L326.218 265.244C326.178 265.075 326.138 264.905 326.098 264.741C326.516 265.131 327.055 265.33 327.597 265.33C327.947 265.33 328.297 265.247 328.616 265.08L340.33 287.509C343.425 293.437 344.467 300.222 343.3 306.81L340.391 323.163Z" fill="#232323"/>
<path d="M337.119 345.334C337.018 345.334 336.916 345.326 336.813 345.312C336.647 345.288 336.477 345.243 336.328 345.187C336.187 345.134 336.043 345.083 335.898 345.033C334.204 344.46 332.232 344.194 330.24 344.107C329.69 344.083 329.136 344.071 328.579 344.071C327.964 344.071 327.346 344.085 326.726 344.111C326.332 343.154 326.024 342.566 326.024 342.566C326.024 342.566 326.036 342.395 326.058 342.076C327.359 341.723 328.684 341.416 330.04 341.181C331.552 340.923 333.106 340.733 334.726 340.733C334.827 340.733 334.927 340.734 335.028 340.735C335.751 340.746 336.485 340.795 337.236 340.893L336.851 343.051C337.647 343.399 338.391 343.76 339.088 344.133C338.714 344.858 337.957 345.334 337.119 345.334Z" fill="#232323"/>
<path d="M339.386 359.549C335.125 359.549 330.343 358.762 325.633 357.481C326.827 356.621 327.557 355.506 327.963 354.273C331.968 355.282 335.946 355.891 339.439 355.891C341.384 355.891 343.177 355.702 344.741 355.287C345.237 355.156 345.709 355.002 346.157 354.824C346.38 354.736 346.609 354.693 346.836 354.693C346.88 354.693 346.925 354.694 346.969 354.698C346.985 355.957 346.776 357.27 346.354 358.637C345.547 358.885 344.693 359.079 343.796 359.223C342.413 359.445 340.935 359.549 339.386 359.549Z" fill="#232323"/>
<path d="M339.694 327.078C339.361 327.02 339.042 326.868 338.773 326.624C338.423 326.301 338.065 325.994 337.703 325.704C334.626 323.237 331.16 321.89 327.739 321.236C327.854 320.01 327.972 318.771 328.095 317.533C331.568 318.161 335.123 319.422 338.42 321.67C339.088 322.126 339.746 322.623 340.391 323.163L339.694 327.078Z" fill="#232323"/>
<path d="M325.522 262.396C324.882 259.857 324.447 258.32 324.447 258.32L325.584 259.251C325.672 259.427 325.76 259.603 325.848 259.78L326.551 261.125L326.161 261.461C325.858 261.721 325.645 262.045 325.522 262.396Z" fill="#232323"/>
<path d="M327.597 265.33C327.055 265.33 326.516 265.131 326.098 264.741C325.893 263.889 325.699 263.104 325.521 262.396C325.645 262.045 325.858 261.721 326.161 261.461L326.551 261.125L328.617 265.08C328.297 265.247 327.947 265.33 327.597 265.33Z" fill="#232323"/>
<path fill-rule="evenodd" clip-rule="evenodd" d="M287.882 211.079C290.817 210.72 293.487 212.809 293.846 215.742C294.204 218.675 292.115 221.345 289.181 221.704C286.247 222.063 283.578 219.974 283.219 217.041C282.86 214.108 284.949 211.437 287.882 211.079Z" fill="#22A7F0"/>
<path d="M283.195 216.813C283.184 216.739 283.172 216.664 283.163 216.589C283.106 216.12 283.118 215.659 283.179 215.212C283.207 215.282 283.236 215.351 283.267 215.419C283.184 215.87 283.158 216.337 283.195 216.813ZM293.813 215.516C293.735 215.045 293.597 214.597 293.408 214.18C293.422 214.106 293.434 214.032 293.444 213.957C293.611 214.377 293.733 214.821 293.79 215.29C293.799 215.366 293.807 215.441 293.813 215.516Z" fill="#BDBDBD"/>
<path d="M288.47 221.292C286.266 221.292 284.305 219.932 283.505 217.928C283.574 217.426 283.711 216.945 283.91 216.494C284.898 217.777 286.446 218.583 288.14 218.583C288.356 218.583 288.575 218.57 288.794 218.543C290.74 218.306 292.308 217.051 293.043 215.378C293.344 215.768 293.594 216.203 293.781 216.671C293.457 219.019 291.59 220.951 289.125 221.252C288.905 221.279 288.686 221.292 288.47 221.292ZM283.196 216.814V216.813C283.158 216.337 283.184 215.87 283.267 215.419C283.184 215.87 283.158 216.337 283.196 216.814Z" fill="#227FB2"/>
<path d="M293.846 215.742C293.837 215.667 293.825 215.592 293.814 215.518C293.814 215.516 293.814 215.516 293.814 215.516C293.825 215.59 293.837 215.665 293.846 215.742ZM287.883 211.078C288.103 211.051 288.322 211.038 288.538 211.038C289.32 211.038 290.07 211.209 290.75 211.519C290.07 211.209 289.32 211.038 288.539 211.038C288.322 211.038 288.103 211.051 287.883 211.078Z" fill="white"/>
<path d="M283.48 218.154C283.357 217.799 283.266 217.428 283.22 217.041C283.211 216.964 283.203 216.889 283.196 216.814C283.261 217.202 283.366 217.574 283.506 217.928C283.495 218.003 283.488 218.078 283.48 218.154ZM293.861 216.885C293.836 216.814 293.809 216.743 293.782 216.672C293.833 216.296 293.845 215.91 293.814 215.518C293.826 215.591 293.837 215.667 293.846 215.742C293.853 215.794 293.858 215.844 293.862 215.895C293.893 216.23 293.89 216.561 293.861 216.885ZM283.911 216.494C283.657 216.165 283.441 215.805 283.268 215.419C283.422 214.584 283.771 213.81 284.274 213.149C285.118 212.041 286.391 211.261 287.883 211.078C288.103 211.051 288.322 211.038 288.539 211.038C289.32 211.038 290.07 211.209 290.75 211.519C291.537 211.877 292.228 212.424 292.76 213.106C293.015 213.434 293.234 213.794 293.409 214.18C293.334 214.597 293.211 214.998 293.043 215.378C292.054 214.098 290.507 213.295 288.814 213.295C288.598 213.295 288.379 213.31 288.159 213.336C286.216 213.574 284.647 214.825 283.911 216.494Z" fill="#A7DCF9"/>
<path d="M293.814 215.518C293.736 215.046 293.597 214.598 293.408 214.18C293.597 214.597 293.736 215.045 293.814 215.517C293.814 215.517 293.814 215.517 293.814 215.518Z" fill="#E5E5E5"/>
<path d="M283.505 217.928C283.365 217.574 283.26 217.203 283.196 216.814C283.158 216.337 283.184 215.87 283.267 215.419C283.44 215.805 283.657 216.165 283.91 216.494C283.711 216.945 283.574 217.427 283.505 217.928ZM293.781 216.672C293.594 216.203 293.344 215.768 293.043 215.378C293.21 214.998 293.333 214.597 293.408 214.18C293.597 214.598 293.736 215.046 293.813 215.518C293.844 215.91 293.833 216.296 293.781 216.672Z" fill="#A7CCE0"/>
<path d="M288.048 212.433C285.866 212.7 284.307 214.693 284.574 216.875C284.702 217.932 285.237 218.876 286.075 219.532C286.915 220.189 287.964 220.479 289.014 220.349C291.198 220.083 292.757 218.09 292.491 215.908C292.225 213.726 290.239 212.174 288.048 212.433ZM288.518 223.109C287.026 223.109 285.588 222.616 284.394 221.682C282.98 220.576 282.082 218.987 281.865 217.207C281.415 213.53 284.041 210.173 287.717 209.724C291.393 209.269 294.75 211.9 295.2 215.576C295.649 219.253 293.024 222.609 289.346 223.059C289.069 223.092 288.793 223.109 288.518 223.109Z" fill="#232323"/>
</svg>
