<svg width="233" height="139" viewBox="0 0 233 139" fill="none" xmlns="http://www.w3.org/2000/svg">
<path d="M231.142 93.0269L220.3 46.0688L220.287 46.0765C219.195 34.3674 212.422 24.3269 202.757 18.6871H203.368V12.9851C203.368 8.93119 200.92 5.44897 197.42 3.93553V3.43622C195.93 -0.100318 192.432 0.000575838 188.339 0.000575838H181.375C177.313 0.000575838 173.831 -0.126188 172.325 3.3819V3.92518C168.812 5.43086 166.352 8.92342 166.352 12.9877V18.6897H66.4772V12.9877C66.4772 8.92342 64.0195 5.43086 60.5036 3.92518V3.3819C58.998 -0.123601 55.5158 0.000575838 51.454 0.000575838H44.487C40.3943 0.000575838 36.8965 -0.100318 35.4064 3.43622V3.93553C31.906 5.44897 29.4587 8.93119 29.4587 12.9851V18.6871H30.0692C20.4116 24.3295 13.6309 34.3674 12.5391 46.0765L12.5262 46.0688L1.68374 93.0269C-1.09479 105.784 -1.49578 119.343 8.89911 128.387C11.556 131.461 15.1831 134.149 20.065 136.267C39.1343 144.538 52.1991 133.049 60.113 115.033L68.1407 98.5296C71.8558 103.675 77.8888 107.039 84.7265 107.039C94.7902 107.039 103.126 99.7817 104.844 90.2225H128.021C129.739 99.7817 138.08 107.039 148.138 107.039C154.963 107.039 160.983 103.691 164.698 98.5658L172.708 115.033C180.622 133.049 193.684 144.538 212.753 136.267C217.638 134.149 221.265 131.463 223.919 128.385C234.325 119.343 233.921 105.784 231.142 93.0269ZM47.9692 26.3578L50.9987 29.0328H44.9449L47.9692 26.3578ZM41.5015 33.8991C41.5015 32.471 42.658 31.312 44.0886 31.312H51.8499C53.2805 31.312 54.4369 32.471 54.4369 33.8991V39.8184C54.4369 41.249 50.176 45.9084 48.7479 45.9084H47.1931C45.765 45.9084 41.5015 41.2464 41.5015 39.8184V33.8991ZM26.5042 53.5299L23.8292 50.4978L26.5042 47.4735V53.5299ZM32.4519 55.8945C31.0213 55.8945 29.8648 54.7381 29.8648 53.3074L29.8597 45.5462C29.8597 44.1155 31.0187 42.9591 32.4467 42.9591L38.3686 42.9565C39.7966 42.9565 44.4586 47.2174 44.4586 48.6481L44.4611 50.2029C44.4611 51.631 39.7992 55.8945 38.3712 55.8945H32.4519ZM47.9744 74.6508L44.9449 71.9706H50.9987L47.9744 74.6508ZM54.4343 64.9441C54.4343 66.3748 53.2779 67.5312 51.8473 67.5312H44.086C42.6554 67.5312 41.4989 66.3748 41.4989 64.9441V59.0223C41.4989 57.5942 45.7624 52.9323 47.1905 52.9323H48.7454C50.1734 52.9323 54.4343 57.5942 54.4343 59.0223V64.9441ZM66.0762 53.2971C66.0814 54.7277 64.9198 55.8841 63.4943 55.8841L57.5725 55.8867C56.1418 55.8867 51.4799 51.6258 51.4799 50.1977V48.6403C51.4799 47.2122 56.1392 42.9487 57.5699 42.9487L63.4917 42.9461C64.9172 42.9461 66.0788 44.1026 66.0788 45.5332V53.2971H66.0762ZM69.4394 47.4735L72.1145 50.503L69.4394 53.5299V47.4735ZM97.6438 83.8298C97.636 84.267 97.6102 84.6991 97.5636 85.1259C97.5403 85.3355 97.5041 85.5399 97.4705 85.7442C97.4161 86.078 97.3566 86.4117 97.2816 86.7377C97.2325 86.9395 97.1833 87.1387 97.1264 87.3353C97.0307 87.6742 96.922 88.0079 96.803 88.3365C96.7461 88.4995 96.6866 88.6702 96.6219 88.8306C96.4486 89.2627 96.252 89.687 96.0372 90.0957C93.6571 94.636 88.9046 97.7405 83.4381 97.7405C78.5097 97.7405 74.1609 95.2207 71.6074 91.4074C71.2633 90.8925 70.9632 90.3467 70.6864 89.7878C70.6347 89.6844 70.5855 89.5835 70.5363 89.4774C70.0112 88.3443 69.6335 87.1335 69.4187 85.8658C69.398 85.7313 69.3773 85.5994 69.3592 85.4674C69.2739 84.831 69.2118 84.1816 69.2118 83.5193C69.2118 77.7941 72.6112 72.8632 77.4904 70.6046C79.3014 69.769 81.3141 69.2852 83.4355 69.2852C84.7446 69.2852 86.0045 69.4767 87.2075 69.8078C93.2225 71.4687 97.6619 76.9766 97.6619 83.5193C97.6593 83.6202 97.6464 83.7263 97.6438 83.8298ZM106.877 54.8002H92.3946V46.0636H106.877V54.8002ZM122.314 83.4003H110.559V80.8133H122.314V83.4003ZM123.678 75.4554H109.195V66.724H123.675L123.678 75.4554ZM125.877 55.2193V45.6471L140.478 49.0387V51.8328L125.877 55.2193ZM163.519 85.4441C163.498 85.6019 163.472 85.7546 163.449 85.9124C163.343 86.5307 163.211 87.1464 163.027 87.7337C162.843 88.3313 162.605 88.9082 162.344 89.4696C162.285 89.6016 162.22 89.7309 162.158 89.8577C161.884 90.4087 161.584 90.9443 161.242 91.4488C158.683 95.244 154.347 97.7431 149.437 97.7431C144.017 97.7431 139.298 94.6956 136.898 90.2251C136.652 89.7672 136.435 89.2911 136.24 88.8022C136.186 88.6702 136.142 88.5331 136.093 88.4038C135.958 88.0364 135.837 87.6664 135.733 87.2887C135.687 87.1232 135.643 86.955 135.604 86.7868C135.516 86.4143 135.444 86.034 135.387 85.6537C135.363 85.4907 135.332 85.3329 135.314 85.1673C135.252 84.6266 135.211 84.0782 135.211 83.5193C135.211 75.6676 141.593 69.2852 149.435 69.2852C157.279 69.2852 163.664 75.6676 163.664 83.5193C163.666 84.1713 163.604 84.8103 163.519 85.4441ZM167.097 58.8438C162.455 58.8438 158.689 55.077 158.689 50.4383C158.689 45.7997 162.455 42.0251 167.097 42.0251C171.73 42.0251 175.499 45.7997 175.499 50.4383C175.499 55.077 171.73 58.8438 167.097 58.8438ZM184.862 76.6093C180.221 76.6093 176.454 72.8425 176.454 68.2064C176.454 63.5678 180.221 59.7932 184.862 59.7932C189.496 59.7932 193.265 63.5678 193.265 68.2064C193.265 72.8425 189.496 76.6093 184.862 76.6093ZM184.862 41.0731C180.221 41.0731 176.454 37.3089 176.454 32.6728C176.454 28.0342 180.221 24.2596 184.862 24.2596C189.496 24.2596 193.265 28.0342 193.265 32.6728C193.265 37.3089 189.496 41.0731 184.862 41.0731ZM202.617 58.8438C197.976 58.8438 194.209 55.077 194.209 50.4409C194.209 45.8023 197.976 42.0251 202.617 42.0251C207.251 42.0251 211.02 45.8023 211.02 50.4409C211.02 55.077 207.251 58.8438 202.617 58.8438ZM179.409 36.0567H190.316L184.86 26.945L179.409 36.0567ZM181.685 34.7632L184.857 29.4623L188.031 34.7632H181.685ZM162.603 54.9295H171.585V45.9472H162.603V54.9295ZM163.896 47.2407H170.292V53.636H163.896V47.2407ZM202.62 45.5824C199.945 45.5824 197.769 47.7607 197.769 50.4332C197.769 53.1108 199.945 55.2865 202.62 55.2865C205.295 55.2865 207.471 53.1108 207.471 50.4332C207.471 47.7607 205.295 45.5824 202.62 45.5824ZM202.62 53.993C200.659 53.993 199.063 52.3968 199.063 50.4332C199.063 48.4722 200.659 46.8759 202.62 46.8759C204.581 46.8759 206.177 48.4722 206.177 50.4332C206.177 52.3968 204.581 53.993 202.62 53.993ZM188.704 65.2778L185.778 68.2012L188.704 71.1246C188.957 71.3782 188.957 71.7869 188.704 72.0405C188.577 72.1672 188.414 72.2293 188.246 72.2293C188.083 72.2293 187.915 72.1672 187.788 72.0405L184.862 69.1171L181.939 72.0405C181.812 72.1672 181.646 72.2293 181.481 72.2293C181.315 72.2293 181.15 72.1672 181.023 72.0405C180.769 71.7869 180.769 71.3782 181.023 71.1246L183.946 68.2012L181.023 65.2778C180.769 65.0243 180.769 64.6155 181.023 64.362C181.276 64.1085 181.683 64.1059 181.939 64.362L184.862 67.2854L187.788 64.362C188.044 64.1059 188.45 64.1085 188.704 64.362C188.957 64.6155 188.957 65.0243 188.704 65.2778Z" fill="white"/>
</svg>
