<svg width="95" height="95" viewBox="0 0 95 95" fill="none" xmlns="http://www.w3.org/2000/svg">
<path d="M68.8996 49.5H26.0996C22.9996 49.5 20.3996 51.9 20.2996 55.1C20.1996 59 21.6996 65.4 26.6996 70.5C30.0996 74.1 36.4996 78.3 47.4996 78.3C58.4996 78.3 64.8996 74.1 68.2996 70.5C73.1996 65.4 74.7996 59 74.6996 55.1C74.5996 51.9 72.0996 49.5 68.8996 49.5ZM33.4996 67.7C37.2996 64.9 42.1996 63.2 47.4996 63.2C52.7996 63.2 57.6996 64.9 61.4996 67.7C57.8996 70.3 53.1996 71.7 47.4996 71.7C41.6996 71.7 36.9996 70.4 33.4996 67.7Z" fill="white"/>
<path d="M31.2 39.5C35.1765 39.5 38.4 36.2764 38.4 32.3C38.4 28.3235 35.1765 25.1 31.2 25.1C27.2236 25.1 24 28.3235 24 32.3C24 36.2764 27.2236 39.5 31.2 39.5Z" fill="white"/>
<path d="M63.7996 39.5C67.7761 39.5 70.9996 36.2764 70.9996 32.3C70.9996 28.3235 67.7761 25.1 63.7996 25.1C59.8232 25.1 56.5996 28.3235 56.5996 32.3C56.5996 36.2764 59.8232 39.5 63.7996 39.5Z" fill="white"/>
<path d="M75.4 0H19.6C8.8 0 0 8.8 0 19.6V75.4C0 86.2 8.8 95 19.6 95H75.4C86.2 95 95 86.2 95 75.4V19.6C95 8.8 86.2 0 75.4 0ZM87.2 75.4C87.2 81.9 81.9 87.2 75.4 87.2H19.6C13.1 87.2 7.8 81.9 7.8 75.4V19.6C7.8 13.1 13.1 7.8 19.6 7.8H75.4C81.9 7.8 87.2 13.1 87.2 19.6V75.4Z" fill="white"/>
</svg>
