<svg width="90" height="54" viewBox="0 0 90 54" fill="none" xmlns="http://www.w3.org/2000/svg">
<path d="M89.3448 35.9582L85.1538 17.8072L85.1488 17.8102C84.7268 13.2842 82.1088 9.40322 78.3728 7.22322H78.6088V5.01922C78.6088 3.45222 77.6628 2.10622 76.3098 1.52122V1.32822C75.7338 -0.0387764 74.3818 0.000222582 72.7998 0.000222582H70.1078C68.5378 0.000222582 67.1918 -0.0487763 66.6098 1.30722V1.51722C65.2518 2.09922 64.3008 3.44922 64.3008 5.02022V7.22422H25.6958V5.02022C25.6958 3.44922 24.7458 2.09922 23.3868 1.51722V1.30722C22.8048 -0.0477763 21.4588 0.000222582 19.8888 0.000222582H17.1958C15.6138 0.000222582 14.2618 -0.0387764 13.6858 1.32822V1.52122C12.3328 2.10622 11.3868 3.45222 11.3868 5.01922V7.22322H11.6228C7.88983 9.40422 5.26883 13.2842 4.84683 17.8102L4.84183 17.8072L0.650826 35.9582C-0.423174 40.8892 -0.578174 46.1302 3.43983 49.6262C4.46683 50.8142 5.86883 51.8532 7.75583 52.6722C15.1268 55.8692 20.1768 51.4282 23.2358 44.4642L26.3388 38.0852C27.7748 40.0742 30.1068 41.3742 32.7498 41.3742C36.6398 41.3742 39.8618 38.5692 40.5258 34.8742H49.4848C50.1488 38.5692 53.3728 41.3742 57.2608 41.3742C59.8988 41.3742 62.2258 40.0802 63.6618 38.0992L66.7578 44.4642C69.8168 51.4282 74.8658 55.8692 82.2368 52.6722C84.1248 51.8532 85.5268 50.8152 86.5528 49.6252C90.5748 46.1302 90.4188 40.8892 89.3448 35.9582ZM18.5418 10.1882L19.7128 11.2222H17.3728L18.5418 10.1882ZM16.0418 13.1032C16.0418 12.5512 16.4888 12.1032 17.0418 12.1032H20.0418C20.5948 12.1032 21.0418 12.5512 21.0418 13.1032V15.3912C21.0418 15.9442 19.3948 17.7452 18.8428 17.7452H18.2418C17.6898 17.7452 16.0418 15.9432 16.0418 15.3912V13.1032ZM10.2448 20.6912L9.21083 19.5192L10.2448 18.3502V20.6912ZM12.5438 21.6052C11.9908 21.6052 11.5438 21.1582 11.5438 20.6052L11.5418 17.6052C11.5418 17.0522 11.9898 16.6052 12.5418 16.6052L14.8308 16.6042C15.3828 16.6042 17.1848 18.2512 17.1848 18.8042L17.1858 19.4052C17.1858 19.9572 15.3838 21.6052 14.8318 21.6052H12.5438ZM18.5438 28.8552L17.3728 27.8192H19.7128L18.5438 28.8552ZM21.0408 25.1032C21.0408 25.6562 20.5938 26.1032 20.0408 26.1032H17.0408C16.4878 26.1032 16.0408 25.6562 16.0408 25.1032V22.8142C16.0408 22.2622 17.6888 20.4602 18.2408 20.4602H18.8418C19.3938 20.4602 21.0408 22.2622 21.0408 22.8142V25.1032ZM25.5408 20.6012C25.5428 21.1542 25.0938 21.6012 24.5428 21.6012L22.2538 21.6022C21.7008 21.6022 19.8988 19.9552 19.8988 19.4032V18.8012C19.8988 18.2492 21.6998 16.6012 22.2528 16.6012L24.5418 16.6002C25.0928 16.6002 25.5418 17.0472 25.5418 17.6002V20.6012H25.5408ZM26.8408 18.3502L27.8748 19.5212L26.8408 20.6912V18.3502ZM37.7428 32.4032C37.7398 32.5722 37.7298 32.7392 37.7118 32.9042C37.7028 32.9852 37.6888 33.0642 37.6758 33.1432C37.6548 33.2722 37.6318 33.4012 37.6028 33.5272C37.5838 33.6052 37.5648 33.6822 37.5428 33.7582C37.5058 33.8892 37.4638 34.0182 37.4178 34.1452C37.3958 34.2082 37.3728 34.2742 37.3478 34.3362C37.2808 34.5032 37.2048 34.6672 37.1218 34.8252C36.2018 36.5802 34.3648 37.7802 32.2518 37.7802C30.3468 37.7802 28.6658 36.8062 27.6788 35.3322C27.5458 35.1332 27.4298 34.9222 27.3228 34.7062C27.3028 34.6662 27.2838 34.6272 27.2648 34.5862C27.0618 34.1482 26.9158 33.6802 26.8328 33.1902C26.8248 33.1382 26.8168 33.0872 26.8098 33.0362C26.7768 32.7902 26.7528 32.5392 26.7528 32.2832C26.7528 30.0702 28.0668 28.1642 29.9528 27.2912C30.6528 26.9682 31.4308 26.7812 32.2508 26.7812C32.7568 26.7812 33.2438 26.8552 33.7088 26.9832C36.0338 27.6252 37.7498 29.7542 37.7498 32.2832C37.7488 32.3222 37.7438 32.3632 37.7428 32.4032ZM41.3118 21.1822H35.7138V17.8052H41.3118V21.1822ZM47.2788 32.2372H42.7348V31.2372H47.2788V32.2372ZM47.8058 29.1662H42.2078V25.7912H47.8048L47.8058 29.1662ZM48.6558 21.3442V17.6442L54.2998 18.9552V20.0352L48.6558 21.3442ZM63.2058 33.0272C63.1978 33.0882 63.1878 33.1472 63.1788 33.2082C63.1378 33.4472 63.0868 33.6852 63.0158 33.9122C62.9448 34.1432 62.8528 34.3662 62.7518 34.5832C62.7288 34.6342 62.7038 34.6842 62.6798 34.7332C62.5738 34.9462 62.4578 35.1532 62.3258 35.3482C61.3368 36.8152 59.6608 37.7812 57.7628 37.7812C55.6678 37.7812 53.8438 36.6032 52.9158 34.8752C52.8208 34.6982 52.7368 34.5142 52.6618 34.3252C52.6408 34.2742 52.6238 34.2212 52.6048 34.1712C52.5528 34.0292 52.5058 33.8862 52.4658 33.7402C52.4478 33.6762 52.4308 33.6112 52.4158 33.5462C52.3818 33.4022 52.3538 33.2552 52.3318 33.1082C52.3228 33.0452 52.3108 32.9842 52.3038 32.9202C52.2798 32.7112 52.2638 32.4992 52.2638 32.2832C52.2638 29.2482 54.7308 26.7812 57.7618 26.7812C60.7938 26.7812 63.2618 29.2482 63.2618 32.2832C63.2628 32.5352 63.2388 32.7822 63.2058 33.0272ZM64.5888 22.7452C62.7948 22.7452 61.3388 21.2892 61.3388 19.4962C61.3388 17.7032 62.7948 16.2442 64.5888 16.2442C66.3798 16.2442 67.8368 17.7032 67.8368 19.4962C67.8368 21.2892 66.3798 22.7452 64.5888 22.7452ZM71.4558 29.6122C69.6618 29.6122 68.2058 28.1562 68.2058 26.3642C68.2058 24.5712 69.6618 23.1122 71.4558 23.1122C73.2468 23.1122 74.7038 24.5712 74.7038 26.3642C74.7038 28.1562 73.2468 29.6122 71.4558 29.6122ZM71.4558 15.8762C69.6618 15.8762 68.2058 14.4212 68.2058 12.6292C68.2058 10.8362 69.6618 9.37722 71.4558 9.37722C73.2468 9.37722 74.7038 10.8362 74.7038 12.6292C74.7038 14.4212 73.2468 15.8762 71.4558 15.8762ZM78.3188 22.7452C76.5248 22.7452 75.0688 21.2892 75.0688 19.4972C75.0688 17.7042 76.5248 16.2442 78.3188 16.2442C80.1098 16.2442 81.5668 17.7042 81.5668 19.4972C81.5668 21.2892 80.1098 22.7452 78.3188 22.7452ZM69.3478 13.9372H73.5638L71.4548 10.4152L69.3478 13.9372ZM70.2278 13.4372L71.4538 11.3882L72.6808 13.4372H70.2278ZM62.8518 21.2322H66.3238V17.7602H62.8518V21.2322ZM63.3518 18.2602H65.8238V20.7322H63.3518V18.2602ZM78.3198 17.6192C77.2858 17.6192 76.4448 18.4612 76.4448 19.4942C76.4448 20.5292 77.2858 21.3702 78.3198 21.3702C79.3538 21.3702 80.1948 20.5292 80.1948 19.4942C80.1948 18.4612 79.3538 17.6192 78.3198 17.6192ZM78.3198 20.8702C77.5618 20.8702 76.9448 20.2532 76.9448 19.4942C76.9448 18.7362 77.5618 18.1192 78.3198 18.1192C79.0778 18.1192 79.6948 18.7362 79.6948 19.4942C79.6948 20.2532 79.0778 20.8702 78.3198 20.8702ZM72.9408 25.2322L71.8098 26.3622L72.9408 27.4922C73.0388 27.5902 73.0388 27.7482 72.9408 27.8462C72.8918 27.8952 72.8288 27.9192 72.7638 27.9192C72.7008 27.9192 72.6358 27.8952 72.5868 27.8462L71.4558 26.7162L70.3258 27.8462C70.2768 27.8952 70.2128 27.9192 70.1488 27.9192C70.0848 27.9192 70.0208 27.8952 69.9718 27.8462C69.8738 27.7482 69.8738 27.5902 69.9718 27.4922L71.1018 26.3622L69.9718 25.2322C69.8738 25.1342 69.8738 24.9762 69.9718 24.8782C70.0698 24.7802 70.2268 24.7792 70.3258 24.8782L71.4558 26.0082L72.5868 24.8782C72.6858 24.7792 72.8428 24.7802 72.9408 24.8782C73.0388 24.9762 73.0388 25.1342 72.9408 25.2322Z" fill="#D91EF7"/>
</svg>
