<svg width="169" height="54" viewBox="0 0 169 54" fill="none" xmlns="http://www.w3.org/2000/svg">
<path d="M89.3448 35.9582L85.1538 17.8072L85.1488 17.8102C84.7268 13.2842 82.1088 9.40322 78.3728 7.22322H78.6088V5.01922C78.6088 3.45222 77.6628 2.10622 76.3098 1.52122V1.32822C75.7338 -0.0387764 74.3818 0.000222582 72.7998 0.000222582H70.1078C68.5378 0.000222582 67.1918 -0.0487763 66.6098 1.30722V1.51722C65.2518 2.09922 64.3008 3.44922 64.3008 5.02022V7.22422H25.6958V5.02022C25.6958 3.44922 24.7458 2.09922 23.3868 1.51722V1.30722C22.8048 -0.0477763 21.4588 0.000222582 19.8888 0.000222582H17.1958C15.6138 0.000222582 14.2618 -0.0387764 13.6858 1.32822V1.52122C12.3328 2.10622 11.3868 3.45222 11.3868 5.01922V7.22322H11.6228C7.88983 9.40422 5.26883 13.2842 4.84683 17.8102L4.84183 17.8072L0.650826 35.9582C-0.423174 40.8892 -0.578174 46.1302 3.43983 49.6262C4.46683 50.8142 5.86883 51.8532 7.75583 52.6722C15.1268 55.8692 20.1768 51.4282 23.2358 44.4642L26.3388 38.0852C27.7748 40.0742 30.1068 41.3742 32.7498 41.3742C36.6398 41.3742 39.8618 38.5692 40.5258 34.8742H49.4848C50.1488 38.5692 53.3728 41.3742 57.2608 41.3742C59.8988 41.3742 62.2258 40.0802 63.6618 38.0992L66.7578 44.4642C69.8168 51.4282 74.8658 55.8692 82.2368 52.6722C84.1248 51.8532 85.5268 50.8152 86.5528 49.6252C90.5748 46.1302 90.4188 40.8892 89.3448 35.9582ZM18.5418 10.1882L19.7128 11.2222H17.3728L18.5418 10.1882ZM16.0418 13.1032C16.0418 12.5512 16.4888 12.1032 17.0418 12.1032H20.0418C20.5948 12.1032 21.0418 12.5512 21.0418 13.1032V15.3912C21.0418 15.9442 19.3948 17.7452 18.8428 17.7452H18.2418C17.6898 17.7452 16.0418 15.9432 16.0418 15.3912V13.1032ZM10.2448 20.6912L9.21083 19.5192L10.2448 18.3502V20.6912ZM12.5438 21.6052C11.9908 21.6052 11.5438 21.1582 11.5438 20.6052L11.5418 17.6052C11.5418 17.0522 11.9898 16.6052 12.5418 16.6052L14.8308 16.6042C15.3828 16.6042 17.1848 18.2512 17.1848 18.8042L17.1858 19.4052C17.1858 19.9572 15.3838 21.6052 14.8318 21.6052H12.5438ZM18.5438 28.8552L17.3728 27.8192H19.7128L18.5438 28.8552ZM21.0408 25.1032C21.0408 25.6562 20.5938 26.1032 20.0408 26.1032H17.0408C16.4878 26.1032 16.0408 25.6562 16.0408 25.1032V22.8142C16.0408 22.2622 17.6888 20.4602 18.2408 20.4602H18.8418C19.3938 20.4602 21.0408 22.2622 21.0408 22.8142V25.1032ZM25.5408 20.6012C25.5428 21.1542 25.0938 21.6012 24.5428 21.6012L22.2538 21.6022C21.7008 21.6022 19.8988 19.9552 19.8988 19.4032V18.8012C19.8988 18.2492 21.6998 16.6012 22.2528 16.6012L24.5418 16.6002C25.0928 16.6002 25.5418 17.0472 25.5418 17.6002V20.6012H25.5408ZM26.8408 18.3502L27.8748 19.5212L26.8408 20.6912V18.3502ZM37.7428 32.4032C37.7398 32.5722 37.7298 32.7392 37.7118 32.9042C37.7028 32.9852 37.6888 33.0642 37.6758 33.1432C37.6548 33.2722 37.6318 33.4012 37.6028 33.5272C37.5838 33.6052 37.5648 33.6822 37.5428 33.7582C37.5058 33.8892 37.4638 34.0182 37.4178 34.1452C37.3958 34.2082 37.3728 34.2742 37.3478 34.3362C37.2808 34.5032 37.2048 34.6672 37.1218 34.8252C36.2018 36.5802 34.3648 37.7802 32.2518 37.7802C30.3468 37.7802 28.6658 36.8062 27.6788 35.3322C27.5458 35.1332 27.4298 34.9222 27.3228 34.7062C27.3028 34.6662 27.2838 34.6272 27.2648 34.5862C27.0618 34.1482 26.9158 33.6802 26.8328 33.1902C26.8248 33.1382 26.8168 33.0872 26.8098 33.0362C26.7768 32.7902 26.7528 32.5392 26.7528 32.2832C26.7528 30.0702 28.0668 28.1642 29.9528 27.2912C30.6528 26.9682 31.4308 26.7812 32.2508 26.7812C32.7568 26.7812 33.2438 26.8552 33.7088 26.9832C36.0338 27.6252 37.7498 29.7542 37.7498 32.2832C37.7488 32.3222 37.7438 32.3632 37.7428 32.4032ZM41.3118 21.1822H35.7138V17.8052H41.3118V21.1822ZM47.2788 32.2372H42.7348V31.2372H47.2788V32.2372ZM47.8058 29.1662H42.2078V25.7912H47.8048L47.8058 29.1662ZM48.6558 21.3442V17.6442L54.2998 18.9552V20.0352L48.6558 21.3442ZM63.2058 33.0272C63.1978 33.0882 63.1878 33.1472 63.1788 33.2082C63.1378 33.4472 63.0868 33.6852 63.0158 33.9122C62.9448 34.1432 62.8528 34.3662 62.7518 34.5832C62.7288 34.6342 62.7038 34.6842 62.6798 34.7332C62.5738 34.9462 62.4578 35.1532 62.3258 35.3482C61.3368 36.8152 59.6608 37.7812 57.7628 37.7812C55.6678 37.7812 53.8438 36.6032 52.9158 34.8752C52.8208 34.6982 52.7368 34.5142 52.6618 34.3252C52.6408 34.2742 52.6238 34.2212 52.6048 34.1712C52.5528 34.0292 52.5058 33.8862 52.4658 33.7402C52.4478 33.6762 52.4308 33.6112 52.4158 33.5462C52.3818 33.4022 52.3538 33.2552 52.3318 33.1082C52.3228 33.0452 52.3108 32.9842 52.3038 32.9202C52.2798 32.7112 52.2638 32.4992 52.2638 32.2832C52.2638 29.2482 54.7308 26.7812 57.7618 26.7812C60.7938 26.7812 63.2618 29.2482 63.2618 32.2832C63.2628 32.5352 63.2388 32.7822 63.2058 33.0272ZM64.5888 22.7452C62.7948 22.7452 61.3388 21.2892 61.3388 19.4962C61.3388 17.7032 62.7948 16.2442 64.5888 16.2442C66.3798 16.2442 67.8368 17.7032 67.8368 19.4962C67.8368 21.2892 66.3798 22.7452 64.5888 22.7452ZM71.4558 29.6122C69.6618 29.6122 68.2058 28.1562 68.2058 26.3642C68.2058 24.5712 69.6618 23.1122 71.4558 23.1122C73.2468 23.1122 74.7038 24.5712 74.7038 26.3642C74.7038 28.1562 73.2468 29.6122 71.4558 29.6122ZM71.4558 15.8762C69.6618 15.8762 68.2058 14.4212 68.2058 12.6292C68.2058 10.8362 69.6618 9.37722 71.4558 9.37722C73.2468 9.37722 74.7038 10.8362 74.7038 12.6292C74.7038 14.4212 73.2468 15.8762 71.4558 15.8762ZM78.3188 22.7452C76.5248 22.7452 75.0688 21.2892 75.0688 19.4972C75.0688 17.7042 76.5248 16.2442 78.3188 16.2442C80.1098 16.2442 81.5668 17.7042 81.5668 19.4972C81.5668 21.2892 80.1098 22.7452 78.3188 22.7452ZM69.3478 13.9372H73.5638L71.4548 10.4152L69.3478 13.9372ZM70.2278 13.4372L71.4538 11.3882L72.6808 13.4372H70.2278ZM62.8518 21.2322H66.3238V17.7602H62.8518V21.2322ZM63.3518 18.2602H65.8238V20.7322H63.3518V18.2602ZM78.3198 17.6192C77.2858 17.6192 76.4448 18.4612 76.4448 19.4942C76.4448 20.5292 77.2858 21.3702 78.3198 21.3702C79.3538 21.3702 80.1948 20.5292 80.1948 19.4942C80.1948 18.4612 79.3538 17.6192 78.3198 17.6192ZM78.3198 20.8702C77.5618 20.8702 76.9448 20.2532 76.9448 19.4942C76.9448 18.7362 77.5618 18.1192 78.3198 18.1192C79.0778 18.1192 79.6948 18.7362 79.6948 19.4942C79.6948 20.2532 79.0778 20.8702 78.3198 20.8702ZM72.9408 25.2322L71.8098 26.3622L72.9408 27.4922C73.0388 27.5902 73.0388 27.7482 72.9408 27.8462C72.8918 27.8952 72.8288 27.9192 72.7638 27.9192C72.7008 27.9192 72.6358 27.8952 72.5868 27.8462L71.4558 26.7162L70.3258 27.8462C70.2768 27.8952 70.2128 27.9192 70.1488 27.9192C70.0848 27.9192 70.0208 27.8952 69.9718 27.8462C69.8738 27.7482 69.8738 27.5902 69.9718 27.4922L71.1018 26.3622L69.9718 25.2322C69.8738 25.1342 69.8738 24.9762 69.9718 24.8782C70.0698 24.7802 70.2268 24.7792 70.3258 24.8782L71.4558 26.0082L72.5868 24.8782C72.6858 24.7792 72.8428 24.7802 72.9408 24.8782C73.0388 24.9762 73.0388 25.1342 72.9408 25.2322Z" fill="white"/>
<path d="M113.909 12.1562C113.81 11.8106 113.67 11.5052 113.49 11.2401C113.31 10.9702 113.09 10.7429 112.83 10.5582C112.574 10.3688 112.28 10.2244 111.949 10.125C111.622 10.0256 111.26 9.97585 110.862 9.97585C110.119 9.97585 109.465 10.1605 108.902 10.5298C108.343 10.8991 107.908 11.4366 107.595 12.142C107.283 12.8428 107.126 13.6998 107.126 14.7131C107.126 15.7263 107.28 16.5881 107.588 17.2983C107.896 18.0085 108.331 18.5507 108.895 18.9247C109.458 19.294 110.124 19.4787 110.891 19.4787C111.587 19.4787 112.181 19.3556 112.673 19.1094C113.17 18.8584 113.549 18.5057 113.81 18.0511C114.075 17.5966 114.207 17.0592 114.207 16.4389L114.832 16.5312H111.082V14.2159H117.169V16.0483C117.169 17.3267 116.899 18.4252 116.359 19.3438C115.82 20.2576 115.076 20.9631 114.129 21.4602C113.182 21.9527 112.098 22.1989 110.876 22.1989C109.513 22.1989 108.315 21.8982 107.283 21.2969C106.25 20.6908 105.446 19.8314 104.868 18.7188C104.295 17.6013 104.009 16.2756 104.009 14.7415C104.009 13.5625 104.179 12.5114 104.52 11.5881C104.866 10.66 105.348 9.87405 105.969 9.23011C106.589 8.58617 107.311 8.09612 108.135 7.75994C108.959 7.42377 109.851 7.25568 110.812 7.25568C111.636 7.25568 112.403 7.37642 113.114 7.6179C113.824 7.85464 114.454 8.19081 115.003 8.62642C115.557 9.06203 116.009 9.58049 116.359 10.1818C116.71 10.7784 116.935 11.4366 117.034 12.1562H113.909ZM113.909 36.1562C113.81 35.8106 113.67 35.5052 113.49 35.2401C113.31 34.9702 113.09 34.7429 112.83 34.5582C112.574 34.3688 112.28 34.2244 111.949 34.125C111.622 34.0256 111.26 33.9759 110.862 33.9759C110.119 33.9759 109.465 34.1605 108.902 34.5298C108.343 34.8991 107.908 35.4366 107.595 36.142C107.283 36.8428 107.126 37.6998 107.126 38.7131C107.126 39.7263 107.28 40.5881 107.588 41.2983C107.896 42.0085 108.331 42.5507 108.895 42.9247C109.458 43.294 110.124 43.4787 110.891 43.4787C111.587 43.4787 112.181 43.3556 112.673 43.1094C113.17 42.8584 113.549 42.5057 113.81 42.0511C114.075 41.5966 114.207 41.0592 114.207 40.4389L114.832 40.5312H111.082V38.2159H117.169V40.0483C117.169 41.3267 116.899 42.4252 116.359 43.3438C115.82 44.2576 115.076 44.9631 114.129 45.4602C113.182 45.9527 112.098 46.1989 110.876 46.1989C109.513 46.1989 108.315 45.8982 107.283 45.2969C106.25 44.6908 105.446 43.8314 104.868 42.7188C104.295 41.6013 104.009 40.2756 104.009 38.7415C104.009 37.5625 104.179 36.5114 104.52 35.5881C104.866 34.66 105.348 33.8741 105.969 33.2301C106.589 32.5862 107.311 32.0961 108.135 31.7599C108.959 31.4238 109.851 31.2557 110.812 31.2557C111.636 31.2557 112.403 31.3764 113.114 31.6179C113.824 31.8546 114.454 32.1908 115.003 32.6264C115.557 33.062 116.009 33.5805 116.359 34.1818C116.71 34.7784 116.935 35.4366 117.034 36.1562H113.909Z" fill="#D91EF7"/>
<path d="M122.533 22.206C121.837 22.206 121.217 22.0852 120.672 21.8438C120.128 21.5975 119.697 21.2353 119.38 20.7571C119.067 20.2741 118.911 19.6728 118.911 18.9531C118.911 18.3471 119.022 17.8381 119.245 17.4261C119.467 17.0142 119.77 16.6828 120.154 16.4318C120.537 16.1809 120.973 15.9915 121.461 15.8636C121.953 15.7358 122.469 15.6458 123.009 15.5938C123.643 15.5275 124.155 15.4659 124.543 15.4091C124.931 15.3475 125.213 15.2576 125.388 15.1392C125.563 15.0208 125.651 14.8456 125.651 14.6136V14.571C125.651 14.1212 125.509 13.7732 125.225 13.527C124.945 13.2808 124.548 13.1577 124.032 13.1577C123.487 13.1577 123.054 13.2784 122.732 13.5199C122.41 13.7566 122.197 14.0549 122.093 14.4148L119.294 14.1875C119.436 13.5246 119.716 12.9517 120.132 12.4688C120.549 11.9811 121.087 11.607 121.745 11.3466C122.408 11.0814 123.175 10.9489 124.046 10.9489C124.652 10.9489 125.232 11.0199 125.786 11.1619C126.345 11.304 126.839 11.5241 127.27 11.8224C127.706 12.1207 128.049 12.5043 128.3 12.973C128.551 13.437 128.676 13.9934 128.676 14.642V22H125.807V20.4872H125.722C125.547 20.8281 125.312 21.1288 125.019 21.3892C124.725 21.6449 124.373 21.8461 123.961 21.9929C123.549 22.1349 123.073 22.206 122.533 22.206ZM123.4 20.1179C123.845 20.1179 124.238 20.0303 124.578 19.8551C124.919 19.6752 125.187 19.4337 125.381 19.1307C125.575 18.8277 125.672 18.4844 125.672 18.1009V16.9432C125.578 17.0047 125.447 17.0616 125.282 17.1136C125.121 17.161 124.938 17.206 124.735 17.2486C124.531 17.2865 124.328 17.322 124.124 17.3551C123.92 17.3835 123.736 17.4096 123.57 17.4332C123.215 17.4853 122.905 17.5682 122.64 17.6818C122.374 17.7955 122.168 17.9493 122.022 18.1435C121.875 18.3329 121.801 18.5696 121.801 18.8537C121.801 19.2656 121.951 19.5805 122.249 19.7983C122.552 20.0114 122.935 20.1179 123.4 20.1179ZM131.024 22V11.0909H133.907V13.0156H134.035C134.262 12.3764 134.641 11.8722 135.172 11.5028C135.702 11.1335 136.336 10.9489 137.075 10.9489C137.823 10.9489 138.46 11.1359 138.985 11.5099C139.511 11.8793 139.861 12.3812 140.037 13.0156H140.15C140.373 12.3906 140.775 11.8911 141.358 11.517C141.945 11.1383 142.638 10.9489 143.439 10.9489C144.457 10.9489 145.283 11.2732 145.917 11.9219C146.556 12.5658 146.876 13.4796 146.876 14.6634V22H143.858V15.2599C143.858 14.6539 143.697 14.1993 143.375 13.8963C143.053 13.5933 142.65 13.4418 142.167 13.4418C141.618 13.4418 141.19 13.617 140.882 13.9673C140.574 14.313 140.42 14.7699 140.42 15.3381V22H137.487V15.196C137.487 14.661 137.333 14.2348 137.025 13.9176C136.722 13.6004 136.322 13.4418 135.825 13.4418C135.489 13.4418 135.186 13.527 134.916 13.6974C134.651 13.8632 134.44 14.0975 134.284 14.4006C134.127 14.6989 134.049 15.0492 134.049 15.4517V22H131.024ZM154.238 22.2131C153.115 22.2131 152.15 21.9858 151.34 21.5312C150.535 21.072 149.915 20.4233 149.479 19.5852C149.043 18.7424 148.826 17.7457 148.826 16.5952C148.826 15.473 149.043 14.4882 149.479 13.6406C149.915 12.7931 150.528 12.1326 151.319 11.6591C152.114 11.1856 153.047 10.9489 154.117 10.9489C154.837 10.9489 155.507 11.0649 156.127 11.2969C156.752 11.5241 157.296 11.8674 157.76 12.3267C158.229 12.786 158.594 13.3636 158.854 14.0597C159.114 14.7509 159.245 15.5606 159.245 16.4886V17.3196H150.033V15.4446H156.397C156.397 15.009 156.302 14.6231 156.113 14.2869C155.923 13.9508 155.66 13.688 155.324 13.4986C154.993 13.3045 154.607 13.2074 154.167 13.2074C153.707 13.2074 153.3 13.3139 152.945 13.527C152.595 13.7353 152.32 14.017 152.121 14.3722C151.922 14.7225 151.82 15.1132 151.816 15.544V17.3267C151.816 17.8665 151.915 18.3329 152.114 18.7259C152.318 19.1188 152.604 19.4219 152.973 19.6349C153.343 19.848 153.781 19.9545 154.287 19.9545C154.623 19.9545 154.931 19.9072 155.211 19.8125C155.49 19.7178 155.729 19.5758 155.928 19.3864C156.127 19.197 156.278 18.965 156.382 18.6903L159.181 18.875C159.039 19.5473 158.748 20.1345 158.307 20.6364C157.872 21.1335 157.308 21.5218 156.617 21.8011C155.93 22.0758 155.137 22.2131 154.238 22.2131ZM161.219 22V11.0909H164.152V12.9943H164.266C164.465 12.3172 164.799 11.8059 165.267 11.4602C165.736 11.1098 166.276 10.9347 166.887 10.9347C167.038 10.9347 167.202 10.9441 167.377 10.9631C167.552 10.982 167.706 11.008 167.838 11.0412V13.7259C167.696 13.6832 167.5 13.6454 167.249 13.6122C166.998 13.5791 166.768 13.5625 166.56 13.5625C166.115 13.5625 165.717 13.6596 165.367 13.8537C165.021 14.0431 164.747 14.3082 164.543 14.6491C164.344 14.9901 164.245 15.383 164.245 15.8281V22H161.219ZM119.422 46V35.0909H122.355V36.9943H122.469C122.668 36.3172 123.002 35.8059 123.471 35.4602C123.939 35.1098 124.479 34.9347 125.09 34.9347C125.241 34.9347 125.405 34.9441 125.58 34.9631C125.755 34.982 125.909 35.008 126.042 35.0412V37.7259C125.9 37.6832 125.703 37.6454 125.452 37.6122C125.201 37.5791 124.971 37.5625 124.763 37.5625C124.318 37.5625 123.92 37.6596 123.57 37.8537C123.224 38.0431 122.95 38.3082 122.746 38.6491C122.547 38.9901 122.448 39.383 122.448 39.8281V46H119.422ZM132.027 46.2131C130.924 46.2131 129.97 45.9787 129.165 45.5099C128.365 45.0365 127.747 44.3783 127.311 43.5355C126.875 42.688 126.658 41.7055 126.658 40.5881C126.658 39.4612 126.875 38.4763 127.311 37.6335C127.747 36.786 128.365 36.1278 129.165 35.6591C129.97 35.1856 130.924 34.9489 132.027 34.9489C133.13 34.9489 134.082 35.1856 134.882 35.6591C135.687 36.1278 136.307 36.786 136.743 37.6335C137.179 38.4763 137.396 39.4612 137.396 40.5881C137.396 41.7055 137.179 42.688 136.743 43.5355C136.307 44.3783 135.687 45.0365 134.882 45.5099C134.082 45.9787 133.13 46.2131 132.027 46.2131ZM132.041 43.8693C132.543 43.8693 132.962 43.7273 133.298 43.4432C133.634 43.1544 133.888 42.7614 134.058 42.2642C134.233 41.767 134.321 41.2012 134.321 40.5668C134.321 39.9323 134.233 39.3665 134.058 38.8693C133.888 38.3722 133.634 37.9792 133.298 37.6903C132.962 37.4015 132.543 37.2571 132.041 37.2571C131.535 37.2571 131.108 37.4015 130.763 37.6903C130.422 37.9792 130.164 38.3722 129.989 38.8693C129.818 39.3665 129.733 39.9323 129.733 40.5668C129.733 41.2012 129.818 41.767 129.989 42.2642C130.164 42.7614 130.422 43.1544 130.763 43.4432C131.108 43.7273 131.535 43.8693 132.041 43.8693ZM146.359 41.3551V35.0909H149.385V46H146.48V44.0185H146.366C146.12 44.6577 145.711 45.1714 145.138 45.5597C144.57 45.9479 143.876 46.142 143.057 46.142C142.328 46.142 141.686 45.9763 141.132 45.6449C140.578 45.3134 140.145 44.8423 139.832 44.2315C139.525 43.6207 139.368 42.8892 139.364 42.0369V35.0909H142.389V41.4972C142.394 42.1411 142.567 42.6501 142.908 43.0241C143.249 43.3982 143.705 43.5852 144.278 43.5852C144.643 43.5852 144.984 43.5024 145.301 43.3366C145.618 43.1662 145.874 42.9152 146.068 42.5838C146.267 42.2524 146.364 41.8428 146.359 41.3551ZM151.805 50.0909V35.0909H154.788V36.9233H154.923C155.056 36.6297 155.247 36.3314 155.498 36.0284C155.754 35.7206 156.085 35.465 156.493 35.2614C156.904 35.053 157.416 34.9489 158.027 34.9489C158.822 34.9489 159.556 35.1572 160.228 35.5739C160.901 35.9858 161.438 36.6084 161.841 37.4418C162.243 38.2704 162.444 39.3097 162.444 40.5597C162.444 41.7765 162.248 42.804 161.855 43.642C161.467 44.4754 160.936 45.1075 160.264 45.5384C159.596 45.9645 158.848 46.1776 158.02 46.1776C157.432 46.1776 156.933 46.0805 156.521 45.8864C156.114 45.6922 155.78 45.4484 155.52 45.1548C155.259 44.8565 155.06 44.5559 154.923 44.2528H154.831V50.0909H151.805ZM154.767 40.5455C154.767 41.1941 154.857 41.7599 155.037 42.2429C155.217 42.7259 155.477 43.1023 155.818 43.3722C156.159 43.6373 156.573 43.7699 157.061 43.7699C157.553 43.7699 157.97 43.6349 158.311 43.3651C158.652 43.0904 158.91 42.7116 159.085 42.2287C159.265 41.741 159.355 41.1799 159.355 40.5455C159.355 39.9157 159.267 39.3617 159.092 38.8835C158.917 38.4053 158.659 38.0312 158.318 37.7614C157.977 37.4915 157.558 37.3565 157.061 37.3565C156.568 37.3565 156.152 37.4867 155.811 37.7472C155.475 38.0076 155.217 38.3769 155.037 38.8551C154.857 39.3333 154.767 39.8968 154.767 40.5455Z" fill="white"/>
</svg>
